<?xml version="1.0" standalone="no"?><!DOCTYPE svg PUBLIC "-//W3C//DTD SVG 1.1//EN" "http://www.w3.org/Graphics/SVG/1.1/DTD/svg11.dtd"><svg t="1710472037147" class="icon" viewBox="0 0 1024 1024" version="1.1" xmlns="http://www.w3.org/2000/svg" p-id="9178" xmlns:xlink="http://www.w3.org/1999/xlink" width="200" height="200"><path d="M726.994834 65.218879l-19.00716-65.218879L661.775955 33.510253l0.180162 0.630569c-2.161952-0.990895-4.594148-1.531383-7.116424-1.531382-9.638702 0-17.385696 7.746994-17.385696 17.385695 0 9.638702 7.746994 17.385696 17.385696 17.385696 6.12553 0 11.53041-3.152846 14.593174-7.927157l0.540488 1.98179 57.021479 3.783415z" p-id="9179" fill="#9b9eab"></path><path d="M397.567429 235.832908m-69.993189 0a69.993189 69.993189 0 1 0 139.986378 0 69.993189 69.993189 0 1 0-139.986378 0Z" p-id="9180" fill="#9b9eab"></path><path d="M209.387542 106.74637c-41.257247 0-74.677418 37.113506-74.677419 82.874819s33.420171 82.874819 74.677419 82.874818c41.257247 0 74.677418-37.113506 74.677418-82.874818-0.090081-45.851394-33.510253-82.874819-74.677418-82.874819z m0 148.27386c-29.186349 0-52.877738-27.925211-52.877738-62.426358s23.691388-62.426358 52.877738-62.426358c29.186349 0 52.877738 27.925211 52.877737 62.426358s-23.691388 62.426358-52.877737 62.426358z" p-id="9181" fill="#9b9eab"></path><path d="M198.39762 272.405926v146.922641c-29.276431 15.313825-16.034476 42.878711 0 51.076111l156.831586 42.338223c8.197401 2.252033 16.935289-0.810732 22.069925-7.566832l59.093349-78.821159c3.152846-4.233822 9.638702-3.873497 12.341142 0.810732l97.28783 170.614029v184.396472l-103.773686 188.540213c-18.556753 28.916105 32.879684 76.118719 61.975952 40.536596l122.060195-203.493713c2.07187-3.513172 3.242928-7.47675 3.242927-11.620491V631.560168c0-11.800654 21.07903-16.845208 27.384723-4.233822l93.234171 158.633213 58.192536 216.825749c13.512199 35.041635 90.261487 8.647807 78.010427-30.177244L825.723966 752.359225 578.540811 326.724965c-5.765205-9.908946-2.432196-22.610413 7.47675-28.375617l218.717456-127.465075c15.223744-17.385696-12.160979-54.319039-34.140822-46.211719l-344.831311 199.980541-69.36262 120.168487c-2.432196 4.143741-7.296587 6.215611-11.890735 5.134635L221.368358 420.859949V272.405926h-22.970738z" p-id="9182" fill="#9b9eab"></path></svg>