<?xml version="1.0" standalone="no"?><!DOCTYPE svg PUBLIC "-//W3C//DTD SVG 1.1//EN" "http://www.w3.org/Graphics/SVG/1.1/DTD/svg11.dtd"><svg t="1710474721901" class="icon" viewBox="0 0 1024 1024" version="1.1" xmlns="http://www.w3.org/2000/svg" p-id="1275" xmlns:xlink="http://www.w3.org/1999/xlink" width="200" height="200"><path d="M673 583.3c-14.1 0-28.3-1.7-42.1-5.2l-64.6-20.7c-35.4-11.3-73.4-11.3-108.8 0.1l-62.4 20c-38.3 9.8-77.3 6.8-111.8-8l-37.2-15.9c-11.5-4.9-24-7.5-36.5-7.5H17.1C7.7 546.1 0 538.5 0 529v-34.1c0-9.4 7.6-17.1 17.1-17.1h192.8c21.6 0 43.1 4.4 63 12.9l37.3 16c20.8 8.9 44.2 10.6 66.2 5.1l60.1-19.4c49.1-15.8 101.8-15.8 150.9-0.1l62.4 20c19.9 5 43.4 3.2 64.2-5.7l37.3-15.9c20-8.5 41.5-12.9 63.3-12.9h192.5c9.4 0 17.1 7.6 17.1 17.1V529c0 9.4-7.6 17.1-17.1 17.1H814.5c-12.5 0-24.9 2.5-36.4 7.5l-37.3 15.9c-21.5 9.2-44.6 13.8-67.8 13.8z" fill="#9b9eab" p-id="1276"></path><path d="M56.7 665.6H169c9.3 0 16.9-7.5 16.9-16.9V375.3c0-9.3-7.5-16.9-16.9-16.9H56.7c-9.3 0-16.9 7.6-16.9 16.9v273.4c0 9.3 7.5 16.9 16.9 16.9zM967.3 665.6H855c-9.3 0-16.9-7.5-16.9-16.9V375.3c0-9.3 7.5-16.9 16.9-16.9h112.4c9.3 0 16.9 7.6 16.9 16.9v273.4c-0.1 9.3-7.6 16.9-17 16.9z" fill="#9b9eab" p-id="1277" data-spm-anchor-id="a313x.collections_detail.0.i0.71133a811xVANT" class=""></path></svg>