<?xml version="1.0" standalone="no"?><!DOCTYPE svg PUBLIC "-//W3C//DTD SVG 1.1//EN" "http://www.w3.org/Graphics/SVG/1.1/DTD/svg11.dtd"><svg t="1710469871014" class="icon" viewBox="0 0 1207 1024" version="1.1" xmlns="http://www.w3.org/2000/svg" p-id="5419" xmlns:xlink="http://www.w3.org/1999/xlink" width="235.7421875" height="200"><path d="M604.283105 68.79895m-68.79895 0a68.79895 68.79895 0 1 0 137.5979 0 68.79895 68.79895 0 1 0-137.5979 0Z" p-id="5420" fill="#9b9eab"></path><path d="M257.022059 168.72281m-63.887102 0a63.887102 63.887102 0 1 0 127.774204 0 63.887102 63.887102 0 1 0-127.774204 0Z" p-id="5421" fill="#9b9eab"></path><path d="M775.999331 60.885417h220.586633c20.201422 4.911848 18.795675 28.032264 5.457609 46.960245-32.68777 45.446999-40.940337 97.906198-40.402845 152.879205h-38.219801c2.877648-62.70462 13.544793-119.397601 43.67741-161.073888l-161.619648 0.545761c31.712016 37.649233 46.968514 89.893436 41.494366 160.528127h-36.582518c-0.686336-69.113176-16.827628-121.53103-49.68905-155.889159-5.44934-10.377726-0.537492-43.950291 15.297844-43.950291zM363.48678 226.052512l111.384839-109.747556c13.106531-10.237151 43.206071 12.899803 34.399475 33.580833L397.274341 269.93665a11.414672 11.414672 0 0 1-4.366087 2.918994l-54.85724 20.573532c-3.365526 1.256904-3.853403 5.813181-0.835179 7.764689l59.984084 38.699409c4.837426 3.117452 11.295597 1.562861 14.181515-3.41514l60.223888-103.884761c11.742128-14.198053 54.328017-3.001685 47.506006 28.123225L436.296246 398.860259c-6.640091 11.0806-20.714107 15.14073-32.23297 9.302743l-62.762503-31.811246c-3.32418-1.686897-7.252005 0.752489-7.218929 4.473586l1.471901 170.93066c0.057884 6.995662 2.836303 13.701906 7.748151 18.688177l143.865881 146.197769c13.106531 16.381096-2.050738 35.218116-18.83702 47.506005l-181.010699 107.283363c-52.417854 24.980965-70.841419-38.087496-55.692419-54.873778l143.717037-87.784814c3.993978-2.439386 4.680313-7.954879 1.414017-11.295597L276.67772 615.080805c-11.45271-12.130776-26.618248-4.506662-30.306268 10.650607l-45.777763 191.958994c-0.595376 2.505539-1.579399 4.911848-2.902456 7.119699L85.024684 1013.122423c-32.348737 30.711454-87.495395-9.32755-67.161668-49.143289L125.973289 787.07818l52.417854-190.015754 0.818642-303.037875c3.274565-19.250475 32.762192-29.892813 63.266919-35.424844l121.010076-32.547195z" p-id="5422" fill="#9b9eab"></path></svg>