<?xml version="1.0" standalone="no"?><!DOCTYPE svg PUBLIC "-//W3C//DTD SVG 1.1//EN" "http://www.w3.org/Graphics/SVG/1.1/DTD/svg11.dtd"><svg t="1710472026641" class="icon" viewBox="0 0 1322 1024" version="1.1" xmlns="http://www.w3.org/2000/svg" p-id="8643" xmlns:xlink="http://www.w3.org/1999/xlink" width="258.203125" height="200"><path d="M601.877217 145.426995a85.188489 85.188489 0 1 0 120.472614-120.47682 85.188489 85.188489 0 1 0-120.472614 120.47682Z" p-id="8644" fill="#9b9eab"></path><path d="M131.269356 394.38957m-36.848126 0a36.848126 36.848126 0 1 0 73.696252 0 36.848126 36.848126 0 1 0-73.696252 0Z" p-id="8645" fill="#9b9eab"></path><path d="M13.337111 452.124381v88.471986h611.277576c9.120823 0 16.599898-7.387867 16.599898-16.599899v-55.272189c0-9.120823-7.387867-16.599898-16.599898-16.599898h-611.277576zM219.923758 390.193991c0.912082 9.850489 10.124114 15.140567 19.518562 13.133985l960.513898-168.73523c17.603189-5.107661 22.619642-10.488947 17.238356-24.808639-1.459332-7.843908-8.938407-12.951569-16.782314-11.583446L231.324787 373.22926c-7.935116 1.368123-13.133986 9.120823-11.401029 16.964731z" p-id="8646" fill="#9b9eab"></path><path d="M400.151226 332.915221L976.769673 59.472939c14.046068-6.658201 30.737174-3.283496 41.043705 8.391158L1153.075187 220.090637c5.563702 6.20216 4.469203 15.870232-2.371414 20.704269l-28.000928 19.974603c-7.570283 5.381286-18.05923 4.286787-24.26139-2.736247l-105.436717-117.65862c-6.20216-6.931826-16.417482-8.75599-24.626222-4.286787L924.233731 159.984412c-9.485656 5.107661-11.309821 17.876814-3.739538 25.538305L1106.102947 373.320468c7.296659 7.387867 11.401029 17.420772 11.401029 27.818511v574.703074c0 26.541596-21.525143 47.97553-47.97553 47.975531s-47.884322-21.433935-47.975531-47.884323l-1.368123-449.930212c0-10.488947-13.772443-14.410901-19.336146-5.472493L884.284525 708.237098c-2.827455 4.469203-4.286787 9.759281-4.286787 15.049359v249.545724c0 28.274552-22.893266 51.167819-51.167818 51.167819s-51.167819-22.893266-51.167819-51.167819V713.162343c0-10.488947 2.827455-20.886685 8.208741-29.9163l124.499238-208.410812c6.20216-10.488947 4.65162-23.805349-3.921954-32.470131L733.243692 267.792543c-8.299949-8.299949-20.886685-10.580155-31.558049-5.654911L432.712565 387.913785c-8.026324 3.739538-17.694397 1.185707-22.802058-6.110951l-16.50869-23.714141c-5.928535-8.664782-2.736247-20.613061 6.749409-25.173472z" p-id="8647" fill="#9b9eab"></path></svg>