<?xml version="1.0" standalone="no"?><!DOCTYPE svg PUBLIC "-//W3C//DTD SVG 1.1//EN" "http://www.w3.org/Graphics/SVG/1.1/DTD/svg11.dtd"><svg t="1710469835722" class="icon" viewBox="0 0 1254 1024" version="1.1" xmlns="http://www.w3.org/2000/svg" p-id="4884" xmlns:xlink="http://www.w3.org/1999/xlink" width="244.921875" height="200"><path d="M633.737497 89.266987m-89.266988 0a89.266987 89.266987 0 1 0 178.533975 0 89.266987 89.266987 0 1 0-178.533975 0Z" p-id="4885" fill="#9b9eab"></path><path d="M139.21223 848.007539m-85.690924 0a85.690924 85.690924 0 1 0 171.381849 0 85.690924 85.690924 0 1 0-171.381849 0Z" p-id="4886" fill="#9b9eab"></path><path d="M4.879161 962.710715v58.918519h451.22799c27.22422 0 30.800283-58.918519 0-58.918519H4.879161zM306.143227 34.808934c1.788031-36.894971 69.627481-33.626526 73.645745 0v167.373198h311.059786c5.046863 0 10.0745 0.663302 14.95794 1.980293l379.610603 102.456122c29.454453 10.564766 8.334533 71.261703-26.782019 65.609216l-244.941076-67.483765c-6.469598-1.778418-11.872144 5.13338-8.565248 10.978128l95.505871 168.978581c27.426095 45.306409 14.352317 89.0555-26.618596 129.103557-5.489064 5.364094-6.72915 13.727467-2.931987 20.398939l86.873332 152.607519a43.405904 43.405904 0 0 0 15.342463 15.717373l228.608467 137.418865c27.897135 30.127368-18.745491 97.524616-56.236472 81.672661l-235.616396-135.352055a66.270596 66.270596 0 0 1-25.061279-25.532319L783.220767 675.712449c-3.874068-7.036769-12.843064-9.411198-19.687571-5.210285l-94.46766 57.966824a23.200188 23.200188 0 0 0-11.055032 19.264596l-5.085316 237.731273c-1.336217 46.421525-90.603204 52.958414-100.41815 0l2.44172-275.83749a47.122318 47.122318 0 0 1 23.340539-40.269159l136.890146-80.028825c7.786588-4.546983 10.430183-14.525352 5.931266-22.340779l-161.018958-279.682719a31.117514 31.117514 0 0 0-26.801244-15.592403l-188.858414-1.028599c-21.177598-0.115357-38.288866-17.322756-38.288866-38.500353V34.808934z" p-id="4887" fill="#9b9eab"></path></svg>