<?xml version="1.0" standalone="no"?><!DOCTYPE svg PUBLIC "-//W3C//DTD SVG 1.1//EN" "http://www.w3.org/Graphics/SVG/1.1/DTD/svg11.dtd"><svg t="1710472002178" class="icon" viewBox="0 0 1215 1024" version="1.1" xmlns="http://www.w3.org/2000/svg" p-id="7832" xmlns:xlink="http://www.w3.org/1999/xlink" width="237.3046875" height="200"><path d="M449.75422 85.573198m-85.573198 0a85.573198 85.573198 0 1 0 171.146396 0 85.573198 85.573198 0 1 0-171.146396 0Z" p-id="7833" fill="#9b9eab"></path><path d="M646.563372 979.786763m-44.213238 0a44.213237 44.213237 0 1 0 88.426475 0 44.213237 44.213237 0 1 0-88.426475 0Z" p-id="7834" fill="#9b9eab"></path><path d="M805.225637 1017.573852V866.76019c0-20.675797 16.759863-37.435659 37.435659-37.43566h140.120151c20.675797 0 37.435659 16.759863 37.435659 37.43566v150.813662h-44.924465V880.131263c0-5.020428-4.066547-9.095342-9.095342-9.095342h-105.889198c-5.020428 0-9.095342 4.066547-9.095342 9.095342v137.450956h-45.987122zM531.04332 958.391371h-54.672463V605.773231c16.642719-5.346756 16.165779-35.29361 0-48.606112V394.580552c32.800131-1.422455 37.084229-63.700866 0-67.508024v-42.548129c0-5.647982-4.576957-10.224939-10.224939-10.224938h-13.304135c-5.647982 0-10.224939 4.576957-10.224938 10.224938v36.18892c0 2.46001-1.991437 4.459814-4.459814 4.459814H391.090517c-2.26756 0-4.100016-1.832456-4.100016-4.100016V213.928812c0.953881-62.755352-103.395718-83.431149-131.208891-54.195522L24.75824 383.644386c-27.093577 29.235627-27.093577 62.755352-7.840235 96.266711l128.188266 235.591959c2.451642 4.501651 3.731852 9.538814 3.731852 14.668018v242.126883c0 28.549502 23.144174 51.702043 51.702043 51.702043 28.549502 0 51.702043-23.144174 51.702042-51.702043V697.990129c0-3.656545-0.962249-7.246151-2.77797-10.417388l-97.145285-168.970878a11.459127 11.459127 0 0 1 1.53123-13.504952l99.245498-107.018794c2.627357-2.836542 6.325739-4.451446 10.191469-4.451446h45.987122c4.334303 0 7.840235 3.5143 7.840236 7.840235v21.269881c0 4.735937 1.363883 9.371466 3.924301 13.354339l118.013532 183.580324v338.711554H385.568046c-4.72757 0-8.55983 3.83226-8.55983 8.55983v48.488969c0 4.72757 3.83226 8.55983 8.55983 8.55983h145.466906c4.72757 0 8.55983-3.83226 8.55983-8.55983v-48.488969c0.008367-4.719202-3.823893-8.551463-8.551462-8.551463zM443.570726 482.10335c0 3.597974-4.769407 4.853081-6.543291 1.732048l-44.221605-77.858474c-2.167151-3.815525 0.585717-8.551463 4.978591-8.551462h39.368524c3.547769 0 6.417781 2.870011 6.417781 6.41778v78.260108z" p-id="7835" fill="#9b9eab"></path></svg>