<?xml version="1.0" standalone="no"?><!DOCTYPE svg PUBLIC "-//W3C//DTD SVG 1.1//EN" "http://www.w3.org/Graphics/SVG/1.1/DTD/svg11.dtd"><svg t="1710421151497" class="icon" viewBox="0 0 1024 1024" version="1.1" xmlns="http://www.w3.org/2000/svg" p-id="3029" xmlns:xlink="http://www.w3.org/1999/xlink" width="200" height="200"><path d="M596.034272 85.787688m-78.524718 0a78.524718 78.524718 0 1 0 157.049437 0 78.524718 78.524718 0 1 0-157.049437 0Z" p-id="3030" fill="#9b9eab"></path><path d="M365.567787 85.787688m-78.524718 0a78.524718 78.524718 0 1 0 157.049437 0 78.524718 78.524718 0 1 0-157.049437 0Z" p-id="3031" fill="#9b9eab"></path><path d="M863.222987 28.680464l-11.878303 137.998466c-0.776658 9.045784-8.351361 15.990023-17.433693 15.990023H210.555936c-21.399219 0-38.750678 17.351459-38.750678 38.750678 0 21.399219 17.351459 38.750678 38.750678 38.750679h68.391613c4.139132 0 7.200079 3.846743 6.268089 7.885366l-34.940485 151.110285A61.668493 61.668493 0 0 1 233.508472 449.163244L45.018082 635.058682c-7.730034 7.629525-2.329975 20.796167 8.524966 20.796167h78.332838c14.427569 0 23.345433 15.74332 15.916926 28.115029L5.582117 920.996841c-26.241912 38.90601 48.947745 87.698423 76.487132 44.872573l178.46693-284.5219c13.797106-20.997184 50.354867-22.934261 71.845458-18.429643 4.449795 0.93199 7.592977 4.934064 7.492468 9.484367-0.283252 12.938213-0.082234 23.884526 0.210154 34.447078L204.434042 943.437696c-13.596088 38.074529 36.713093 75.125696 78.524718 42.834987l51.094976-76.203881c2.110683-3.152319 7.026473-1.653825 7.026473 2.138095v65.138785c0 25.76678 20.887539 46.654318 46.654319 46.654318 25.76678 0 46.654318-20.887539 46.654318-46.654318v-230.164959c0-4.376698 1.178693-8.671161 3.417296-12.426532l91.426383-153.568181c6.414283-10.772707 22.943399-6.222403 22.943399 6.313775v388.055014c0 26.753593 21.691608 48.436064 48.436063 48.436064 26.753593 0 48.436064-21.691608 48.436064-48.436064V540.617038l45.219785-251.792607c3.928977-21.892626 22.979947-37.827826 45.228922-37.827826h154.765148c16.328098 0 29.81454-12.764607 30.709981-29.065293l10.635649-193.250848c-7.373685-42.57001-72.38455-33.652145-72.384549 0zM514.430332 270.349102l-38.220723 201.940284c-13.148367 37.928334-25.666271 66.417987-37.005482 77.227242-3.225416 3.079222-8.534104 1.772608-9.904677-2.467032-5.646762-17.451968-5.317825-51.716303-3.627451-89.772558 0.036549-0.858893 0.146194-1.726922 0.319801-2.56754l39.180124-187.750281a16.213883 16.213883 0 0 1 15.87124-12.901664h19.882452c8.616338 0 15.103719 7.830543 13.504716 16.291549z" p-id="3032" fill="#9b9eab"></path></svg>