<?xml version="1.0" standalone="no"?><!DOCTYPE svg PUBLIC "-//W3C//DTD SVG 1.1//EN" "http://www.w3.org/Graphics/SVG/1.1/DTD/svg11.dtd"><svg t="1710469812958" class="icon" viewBox="0 0 1047 1024" version="1.1" xmlns="http://www.w3.org/2000/svg" p-id="4085" xmlns:xlink="http://www.w3.org/1999/xlink" width="204.4921875" height="200"><path d="M260.351661 529.810519h43.626751c0 119.617647 200.640149 151.074934 205.983792-83.99661-14.841286-271.882224 300.375154-370.417834 313.431975-49.272681h-37.698037c3.559178-223.799187-249.318008-220.230257-235.071544 49.565216 8.912573 217.733957-242.1899 316.103797-290.272937 83.704075z" p-id="4086" fill="#9b9eab"></path><path d="M655.430213 394.756763h125.780389c2.486549 0 4.505042 2.018493 4.505042 4.505043v46.025539c0 2.233019-1.57969 4.193005-3.783455 4.56355-15.962671 2.681573-26.396427 13.45662-28.570939 36.332873v127.03829c0.926361 16.889033 10.306991 29.916601 29.99461 38.224601 1.443174 0.604573 2.359784 2.037995 2.359784 3.607934v25.743099c0 2.691324-2.164761 4.90484-4.856084 4.934094-79.267291 0.945864-138.885966-16.245455-192.08837-39.355737-3.081371-1.335911-4.90484-4.5733-4.48554-7.898451 11.477131-90.822432 29.546056-173.990192 63.275366-238.962262 1.521183-2.944854 4.5733-4.758573 7.869197-4.758573zM823.403931 396.541228h124.522487c2.974108 0 5.675183 1.755211 6.874578 4.475789 31.535296 71.563864 57.385657 147.408492 64.162722 237.6166 0.214526 2.925352-1.404169 5.694685-4.066239 6.923333-65.908183 30.384657-131.874873 43.031929-197.909821 40.282098-2.379286-0.097512-4.261263-2.077-4.261263-4.466037V654.206241c0-1.6577 1.257901-3.052117 2.90585-3.217887 16.898784-1.647948 31.525544-9.897441 31.525545-27.683582V482.614838c0-25.50907-13.446868-30.911221-28.931733-32.724939a6.220274 6.220274 0 0 1-5.499662-6.172493v-43.470732c0-2.047746 1.6577-3.705446 3.705446-3.705446h6.97209z" p-id="4087" fill="#9b9eab"></path><path d="M773.536428 486.174017V616.176664c4.154 20.779751 49.867502 20.779751 54.021503 0V486.174017c-4.154-22.554465-49.857751-23.744108-54.021503 0zM584.227143 672.577452c123.430356 52.831859 304.480398 58.175502 434.756078 0 18.137183 213.706722-51.720225 331.686172-218.42629 351.422548-167.115614-24.933751-238.347938-138.905469-216.329788-351.422548zM112.54337 74.791502h32.052108V24.787483C144.595478 11.096836 133.498643 0 119.817746 0H37.303314c-20.409206 0-36.956948 16.547742-36.956948 36.956948v170.216488c0 22.788493 18.468723 41.257216 41.257216 41.257215h61.139859c23.110282 0 41.852037-18.741756 41.852037-41.852037v-38.292859h-29.380286v28.795216c0 8.200737-6.640549 14.841286-14.841286 14.841286H54.075333c-11.477131 0-20.779751-9.30262-20.779751-20.779751V52.831859c0-9.507394 7.703427-17.210822 17.210822-17.210822h52.324797c4.90484 0 8.912573 3.919972 9.019836 8.815061l0.692333 30.355404zM177.544694 17.805643v196.632417c0 18.771009 15.211831 33.98284 33.98284 33.98284h105.517451v-34.129108h-89.486521c-8.278746 0-14.987554-6.708807-14.987554-14.987553v-49.126413a8.308 8.308 0 0 1 8.308-8.308h93.201718v-36.206108h-94.683897c-3.773704 0-6.825822-3.052117-6.825821-6.825822V43.626751c0-5.73369 4.65131-10.385 10.385-10.385h94.089075V0h-121.694648c-9.829183 0-17.805643 7.97646-17.805643 17.805643zM455.950453 75.386324h37.990573V35.767305C493.941026 16.011427 477.929599 0 458.183472 0h-74.645234c-23.276052 0-42.144573 18.868521-42.144573 42.144573v163.09813c0 23.851371 19.336577 43.187948 43.187948 43.187948h87.029225c12.344986 0 22.34969-10.004704 22.34969-22.34969V127.633112c0-10.160723-8.239742-18.400465-18.400464-18.400465h-74.791502v34.431395h51.642215c3.276394 0 5.938465 2.66207 5.938465 5.938464v56.098502a8.015465 8.015465 0 0 1-8.015465 8.015465h-52.237037c-10.326493 0-18.702751-8.376258-18.702751-18.702751V50.160037c0-7.371887 5.977469-13.359108 13.359108-13.359108h57.483169c3.169131 0 5.73369 2.564559 5.73369 5.733691v32.851704z" p-id="4088" fill="#9b9eab"></path></svg>