<?xml version="1.0" standalone="no"?><!DOCTYPE svg PUBLIC "-//W3C//DTD SVG 1.1//EN" "http://www.w3.org/Graphics/SVG/1.1/DTD/svg11.dtd"><svg t="1710474765703" class="icon" viewBox="0 0 1024 1024" version="1.1" xmlns="http://www.w3.org/2000/svg" p-id="2031" xmlns:xlink="http://www.w3.org/1999/xlink" width="200" height="200"><path d="M602.1 389.9c1.3-36.5-27.2-67.2-63.7-68.6-36.5-1.3-67.2 27.2-68.6 63.7 0 1.1 0.2 2.1 0.2 3.1l-16.4 19-24.1-53.8c-11.8-26.3-42.6-38.1-69-26.3-26.3 11.8-38.1 42.6-26.3 69l57.6 128.6c7.3 16.3 22.4 27.7 40 30.3 1.9 0.3 3.8 0.4 5.7 0.5 15.7 0.6 31-6 41.4-18l73.8-85.3c0.3-0.3 0.3-0.8 0.6-1.1 27.2-7.4 47.7-31.5 48.8-61.1z" fill="#9b9eab" p-id="2032"></path><path d="M488.8 327.1c13-10.2 29.3-16.5 47.2-16.5l2.9 0.1c10.5 0.4 20.6 2.9 29.8 7.2 31.8-17.9 53.5-51.5 53.5-90.6 0-57.7-46.7-104.4-104.4-104.4s-104.4 46.7-104.4 104.4c-0.1 47.5 31.9 87.2 75.4 99.8zM778.3 336.2c-15.4 0.1-29.3 5.6-40.5 14.4l-134.4 0.6c6.4 11.9 9.8 25.2 9.3 39-1 28.1-17.6 51.9-41.9 64.4 1.9 0.2 3.5 1.1 5.5 1.1h0.2l161.7-0.7c11.3 8.7 25.3 14.1 40.7 14 36.7-0.2 66.3-30 66.1-66.7-0.1-36.6-30-66.2-66.7-66.1zM642.9 657.2l-83.1-106.9c-0.8-1-1.6-1.9-2.4-2.9l11-91.5c-2.9 1.4-5.5 3.3-8.6 4.3l-65.8 76c-2.6 1.4-5.1 3-7.4 4.8-5.5 4.3-9.9 9.4-13.1 15-10 6.5-21.8 10-34 10h-2.3c-2.3-0.1-4.6-0.3-6.9-0.6-21.4-3.1-39.4-16.8-48.2-36.5l-17.9-40-9.9 82.2h-0.1l-12.7 94.5-76.7 149.8c-13.1 25.7-3 57.1 22.7 70.2 7 3.6 14.5 5.5 21.8 5.7 19.7 0.7 38.9-9.8 48.4-28.4l80.8-157.8c2.7-5.3 4.5-10.9 5.3-16.8l11.6-86.3 15.9 1.9c1.6 3.6 3.7 7 6.2 10.2l68.9 88.6-24.5 136.9c-5.1 28.4 13.8 55.5 42.2 60.6 2.5 0.4 4.9 0.7 7.3 0.8 25.6 0.9 48.6-17 53.2-43L653 698.4c2.7-14.6-1-29.6-10.1-41.2zM439.3 349l17.2 38.5 2.7-3.1c0.8-19.3 8.7-36.5 20.9-49.5l-57-6.9c6.6 5.8 12.4 12.6 16.2 21z" fill="#9b9eab" p-id="2033"></path></svg>