<?xml version="1.0" standalone="no"?><!DOCTYPE svg PUBLIC "-//W3C//DTD SVG 1.1//EN" "http://www.w3.org/Graphics/SVG/1.1/DTD/svg11.dtd"><svg t="1710472020970" class="icon" viewBox="0 0 1024 1024" version="1.1" xmlns="http://www.w3.org/2000/svg" p-id="8373" xmlns:xlink="http://www.w3.org/1999/xlink" width="200" height="200"><path d="M665.789196 947.060355m-76.939645 0a76.939645 76.939645 0 1 0 153.879289 0 76.939645 76.939645 0 1 0-153.879289 0Z" p-id="8374" fill="#9b9eab"></path><path d="M590.110857 75.227873m-75.227873 0a75.227873 75.227873 0 1 0 150.455746 0 75.227873 75.227873 0 1 0-150.455746 0Z" p-id="8375" fill="#9b9eab"></path><path d="M473.169805 150.455745l192.259018 62.70491c24.59546 10.901285 40.992434 26.667605 41.983459 51.713531l3.423544 107.391167c0.180187 5.405596 6.126342 8.739046 10.811191 5.946155l105.319022-61.62379c22.253035-7.567834 56.758754 21.982756 38.559916 50.812599L684.798874 477.494281c-26.937885 5.315502-45.947563-12.522963-46.12775-38.559915l2.792891-114.778814c-1.441492-10.901285-14.865388-10.631005-19.730424-1.891959L313.254267 995.800809c-37.29861 48.920641-90.723913 10.450818-79.011789-34.775998l188.114728-405.419673c10.721098-31.893014-18.829491-30.091149-27.928911-12.252683L291.541791 760.657399c-28.829843 25.676579-92.615872 4.68485-77.119831-41.352806l213.521028-469.385888c10.360725-17.478093-5.135316-32.523667-23.514341-25.4063L95.949323 303.434102c-29.460496 8.739046-60.812951-41.352807-16.036601-63.065283l314.1552-81.80468c20.361077-6.396622 56.488474-13.784269 79.101883-8.108394z" p-id="8376" fill="#9b9eab"></path></svg>