<?xml version="1.0" standalone="no"?><!DOCTYPE svg PUBLIC "-//W3C//DTD SVG 1.1//EN" "http://www.w3.org/Graphics/SVG/1.1/DTD/svg11.dtd"><svg t="1710469804580" class="icon" viewBox="0 0 1024 1024" version="1.1" xmlns="http://www.w3.org/2000/svg" p-id="3828" xmlns:xlink="http://www.w3.org/1999/xlink" width="200" height="200"><path d="M439.000039 139.27388m-73.682554 0a73.682554 73.682554 0 1 0 147.365108 0 73.682554 73.682554 0 1 0-147.365108 0Z" p-id="3829" fill="#9b9eab"></path><path d="M787.255449 974.388921L607.091925 288.33097c-2.4973-9.492994 4.669219-18.782625 14.487594-18.782625h92.644138c17.806482 0 32.237134-14.430653 32.237135-32.237134V72.611424c2.196323-9.354707-3.066717-13.161666-11.843873-12.722402v-9.208286C770.579667 26.122597 718.534957-26.808777 688.998486 16.466912H179.646885c-7.003829 0-13.657872 3.091121-18.172535 8.451775L124.218212 69.162384c-6.426277 7.630187-6.174107 18.847701 0.577551 26.19318 7.40242 8.045048 18.416571 15.878599 28.926382 19.742499 11.233783 4.124206 23.647073-1.944152 27.39709-13.308088l15.016338-45.48828c2.40782-7.280403 9.208286-12.201792 16.879146-12.201792h447.691879L456.106952 251.343272c-16.317863 17.546177-22.516373 34.579878-17.106913 59.211228l63.750296 230.255948a56.692779 56.692779 0 0 1 0.309112 29.064668l-49.108145 193.300788a62.452025 62.452025 0 0 1-7.337345 17.359082L332.41332 966.498429c-14.91059 31.578237 36.402013 76.757406 70.396205 48.68515l122.59547-199.458625a51.335379 51.335379 0 0 0 6.271721-15.284778l44.056603-189.949362c3.465309-14.959397 24.623216-15.349854 28.649808-0.536879l105.667518 388.993126c10.973478 30.707843 82.02858 26.323332 77.204804-24.55814zM586.454627 205.334382L676.154067 111.819848c2.269533-2.367148 6.271721-0.756511 6.271721 2.521704v83.923925c0 8.118259-6.580833 14.690957-14.690958 14.690957h-78.026392c-3.977784 0.008135-6.003282-4.758699-3.253811-7.622052z" p-id="3830" fill="#9b9eab"></path></svg>