<?xml version="1.0" standalone="no"?><!DOCTYPE svg PUBLIC "-//W3C//DTD SVG 1.1//EN" "http://www.w3.org/Graphics/SVG/1.1/DTD/svg11.dtd"><svg t="1710474813449" class="icon" viewBox="0 0 1024 1024" version="1.1" xmlns="http://www.w3.org/2000/svg" p-id="3035" xmlns:xlink="http://www.w3.org/1999/xlink" width="200" height="200"><path d="M353.567 426.055L406.1 223.453l41.334 10.717L394.9 436.773zM631.5 446.9l-54.9-212.7 41.4-10.7 54.9 212.7z" fill="#9b9eab" p-id="3036"></path><path d="M512 370.4c-61.7 0-112-50.2-112-112s50.2-112 112-112 112 50.2 112 112-50.3 112-112 112z m0-181.2c-38.2 0-69.2 31.1-69.2 69.2s31.1 69.2 69.2 69.2 69.2-31.1 69.2-69.2-31-69.2-69.2-69.2zM368.5 380h287.1v21.4H368.5zM286.7 436.1l168.7 38.5 5.7-25c2.1-9.2-3.7-18.3-12.8-20.4l-135.5-30.9c-9.2-2.1-18.3 3.7-20.4 12.8M212.824 760.164l68.683-301.372 168.772 38.463-68.682 301.372zM207.7 782.9l1.2-5.4-7.4 32.3c-2.1 9.2 3.7 18.3 12.8 20.4L349.8 861c9.2 2.1 18.3-3.7 20.4-12.8l6.1-26.9-168.6-38.4z" fill="#9b9eab" p-id="3037"></path><path d="M731.6 411.1c-2.1-9.2-11.2-14.9-20.4-12.8l-135.5 30.9c-9.2 2.1-14.9 11.2-12.8 20.4l5.7 25 168.7-38.5-5.7-25zM573.722 497.306l168.773-38.463 68.682 301.373-168.773 38.463zM822.5 809.7l-7.4-32.3 1.2 5.4-168.7 38.5 6.1 26.9c2.1 9.2 11.2 14.9 20.4 12.8l135.5-30.9c9.2-2 15-11.2 12.9-20.4z" fill="#9b9eab" p-id="3038"></path></svg>