<?xml version="1.0" standalone="no"?><!DOCTYPE svg PUBLIC "-//W3C//DTD SVG 1.1//EN" "http://www.w3.org/Graphics/SVG/1.1/DTD/svg11.dtd"><svg t="1710474780953" class="icon" viewBox="0 0 1024 1024" version="1.1" xmlns="http://www.w3.org/2000/svg" p-id="2534" xmlns:xlink="http://www.w3.org/1999/xlink" width="200" height="200"><path d="M755.8 485c4.4-7.5 1.8-17.2-5.8-21.5l-4.4-2.5 25.1-47.2c28.1-53 26.5-115.2-4.4-166.7-30.9-51.4-85.2-82.1-145.1-82.1H402.8c-60 0-114.2 30.7-145.1 82.1-30.9 51.4-32.5 113.7-4.4 166.7l25.1 47.2-4.4 2.5c-7.5 4.3-10.1 14-5.8 21.5l27.7 47.9c-28.3 41.7-44.8 92-44.8 146.2 0 71.4 28.7 136 75.2 183.1h371.4c46.5-47.1 75.2-111.7 75.2-183.1 0-54.2-16.5-104.5-44.8-146.2l27.7-47.9zM317.3 379.8c-16.1-30.3-15.2-65.9 2.5-95.3 17.7-29.4 48.7-47 83-47h218.4c34.3 0 65.4 17.6 83 47 17.7 29.4 18.6 65 2.5 95.3l-23.9 44.9-3.6-2.1c-7.5-4.4-17.2-1.8-21.5 5.8l-14.5 25.1c-38.5-22.5-83.4-35.4-131.2-35.4s-92.7 12.9-131.2 35.4l-14.5-25.2c-4.3-7.5-14-10.1-21.5-5.8l-3.6 2.1-23.9-44.8zM512 828.5c-85.6 0-155.1-69.4-155.1-155.1 0-85.6 69.4-155.1 155.1-155.1s155.1 69.4 155.1 155.1c0 85.6-69.5 155.1-155.1 155.1z" fill="#9b9eab" p-id="2535"></path><path d="M506.3 630.9h-21.9L466 665.3h-7.7v-34.4H437v84.9h21.4v-33.4h8c3.3 6.8 6.9 13.5 10.8 19.9 2.9 4.8 6.1 9.3 9.5 13.6h26.1c-11.2-13.3-21-27.7-29.4-43l22.9-42zM558.2 682.8h7.8v17.4c-2.3 0.5-4.7 0.7-7 0.6-6.6-0.1-12.1-2.6-16.3-7.6-2.2-2.9-3.8-6.2-4.7-9.7-0.8-3.3-1.2-6.6-1.2-10 0-3.3 0.4-6.5 1.2-9.8 1.1-3.6 2.8-6.9 5.1-9.8 2.3-2.6 4.9-4.6 8-6 3.1-1.3 6.4-2 9.8-2 7.3-0.1 14.3 1.2 21 3.7l0.5-16.7c-3.8-1.4-7.8-2.3-11.9-3-4.3-0.7-8.5-1.1-12.8-1.2-4.8 0.1-9.6 0.9-14.2 2.1-5.7 1.9-10.7 4.9-15.1 8.9-4.3 4.2-7.5 9.1-9.7 14.6-1.1 3-2 6-2.6 9.1-0.6 3.3-0.9 6.7-0.9 10 0 5.3 0.7 10.4 2 15.5 0.9 3 2.1 5.9 3.6 8.6 1.4 2.5 3.1 4.9 5 7.2 3.9 4.2 8.5 7.4 13.9 9.7 5.6 2.2 11.5 3.3 17.5 3.4 5.3-0.1 10.4-0.8 15.5-2.1s9.8-3.4 14.1-6.5v-42.6H558v16.2z" fill="#9b9eab" p-id="2536"></path></svg>