<?xml version="1.0" standalone="no"?><!DOCTYPE svg PUBLIC "-//W3C//DTD SVG 1.1//EN" "http://www.w3.org/Graphics/SVG/1.1/DTD/svg11.dtd"><svg t="1710471857122" class="icon" viewBox="0 0 1289 1024" version="1.1" xmlns="http://www.w3.org/2000/svg" p-id="6753" xmlns:xlink="http://www.w3.org/1999/xlink" width="251.7578125" height="200"><path d="M976.387614 192.611726m-26.925127 0a26.925127 26.925127 0 1 0 53.850255 0 26.925127 26.925127 0 1 0-53.850255 0Z" p-id="6754" fill="#9b9eab"></path><path d="M442.105307 81.028596m-81.028596 0a81.028596 81.028596 0 1 0 162.057193 0 81.028596 81.028596 0 1 0-162.057193 0Z" p-id="6755" fill="#9b9eab"></path><path d="M669.069782 509.12968v47.77311c0 9.959765 8.018455 17.97822 17.97822 17.97822h413.161436V491.15146H687.132406c-9.959765-0.084405-18.062625 8.018455-18.062624 17.97822z" p-id="6756" fill="#9b9eab"></path><path d="M769.5821 298.75764a66.088949 72.588118 43.72 1 0 100.336338-104.92263 66.088949 72.588118 43.72 1 0-100.336338 104.92263Z" p-id="6757" fill="#9b9eab"></path><path d="M771.874813 300.818664l-27.600365 41.695965 27.600365 13.167147 30.554534-40.683108z" p-id="6758" fill="#9b9eab"></path><path d="M191.676302 181.892318h220.380901c24.646198 0 52.668588 11.901075 67.608235 30.132509L597.156903 328.25022h165.264574c53.850255 9.284527 40.007869 69.043116 0 68.114664H576.562134l-85.755264-78.496453c-6.245954-5.739526-16.290124-2.700953-18.400244 5.486311l-52.330968 201.305419c-2.616548 10.212979 0.253214 21.101197 7.596431 28.613223l150.409332 154.291952c4.389049 4.473454 7.512026 10.04417 9.200122 16.121315l66.510972 241.988526c5.148692 62.037519-76.386333 71.57526-91.072766 27.937985l-54.609897-220.296496c-1.772501-7.343217-5.570716-14.011195-10.888218-19.328696l-152.772666-154.123143c-12.998337-10.550598-30.132509-0.759643-30.132509 8.10286v199.786132c0 7.512026-2.954168 14.770838-8.27167 20.08834l-185.690533 188.475891c-43.299656 28.613223-91.072766-29.710485-67.608235-60.265018l164.504932-162.394812c6.16155-6.077145 9.537741-14.264409 9.537741-22.873698v-247.306028c0-2.447739 0.337619-4.811073 0.928452-7.174407l69.718355-257.096984c1.772501-6.499169-3.122977-12.913933-9.87536-12.913932H178.255941c-8.778098 0-17.218577-3.545001-23.380127-9.790956L15.3547 99.59765c-16.03691-20.257149 24.899412-57.564065 45.240966-43.806085l131.080636 126.100753z" p-id="6759" fill="#9b9eab"></path></svg>