<?xml version="1.0" standalone="no"?><!DOCTYPE svg PUBLIC "-//W3C//DTD SVG 1.1//EN" "http://www.w3.org/Graphics/SVG/1.1/DTD/svg11.dtd"><svg t="1710469791413" class="icon" viewBox="0 0 1440 1024" version="1.1" xmlns="http://www.w3.org/2000/svg" p-id="3564" xmlns:xlink="http://www.w3.org/1999/xlink" width="281.25" height="200"><path d="M18.433545 971.524861h81.047047c31.221158 5.978307 22.583604 49.156079 0 52.475139h-81.047047c-17.425065 0-30.691308-38.898984 0-52.475139zM1227.261201 931.666149L1401.631818 757.785393c15.945484-12.456472 49.326031 10.956897 35.869842 32.380829l-196.794267 192.805397c-35.369983 20.924074-78.217848-16.935204-56.793916-52.815042 15.195697-10.9469 27.652169 1.009714 43.347724 1.509572z" p-id="3565" fill="#9b9eab"></path><path d="M455.899653 168.532271m-96.782591 0a96.782591 96.782591 0 1 0 193.565182 0 96.782591 96.782591 0 1 0-193.565182 0Z" p-id="3566" fill="#9b9eab"></path><path d="M251.207622 864.595144C273.761235 841.371721 365.845156 750.317508 365.845156 750.317508l29.891535 28.561911L235.462081 937.874391a17.497045 17.497045 0 0 1-12.336506 5.078562h-158.845015c-3.329057 0-4.928604-4.078845-2.489295-6.338205l65.521445-60.962735c2.609261-2.429312 6.028293-3.808921 9.597282-3.868905l101.761181-1.769499c4.728661-0.079977 9.237384-2.019428 12.536449-5.418465zM659.462003 963.54712h249.769265c27.232288-0.659813 22.583604 48.496266 0 48.496266H639.537646c-23.913228-2.659247-55.134386-55.134386-30.561345-76.388366 24.253131-8.307647 44.227475 2.759219 50.485702 27.8921zM1301.500176 760.774546L1099.567364 554.522957a25.654734 25.654734 0 0 1-7.317928-17.93492V272.032959c2.989153-50.815609-29.891535-81.70686-80.707143-83.696297h-74.688848c-5.698386 0-11.176835-2.219371-15.265677-6.188247L788.115568 52.75506c-9.097424-8.817503-23.573324-8.717531-32.540784 0.229934L568.697708 239.282235a43.731615 43.731615 0 0 0-12.866356 30.981226v259.03664c0 6.258228-2.469301 12.256529-6.878052 16.705269L395.746688 700.491619c-11.956614 27.902098 26.402523 67.260951 57.123823 49.825889l175.190385-174.550567c3.519003-3.509006 5.50844-8.257661 5.548429-13.226254l1.209657-167.642523a9.344354 9.344354 0 0 1 9.347353-9.277373h76.598307c2.64925 0 3.998868 3.199094 2.139394 5.088559l-58.783352 60.013004v55.804196l119.936034-114.777495c2.319343-2.219371 5.408468-3.45902 8.627556-3.45902H855.306539c4.2388 0 6.368197 5.108553 3.399038 8.117701L719.385033 537.517773a25.922659 25.922659 0 0 0-7.467885 18.134864l-0.639819 326.19762c10.62699 65.101563 112.268205 64.431753 114.917455 0V598.960373c0-5.488446 2.169386-10.756954 6.028293-14.65585l129.543313-130.812953c6.208242-6.268225 16.885218-1.869471 16.885218 6.948032V582.634996c0 8.787511 3.529001 17.19513 9.797225 23.353386l235.323356 231.014576c36.869558 28.232005 110.608675-25.572758 77.727987-76.228412z m-561.940857-583.804664l32.340841-27.522206c1.999434-1.709516 4.948599-1.689522 6.938036 0.039989l31.651036 27.522205c3.70895 3.229086 1.429595 9.337356-3.489012 9.337356h-63.98188c-4.958596-0.009997-7.227953-6.168253-3.459021-9.377344z" p-id="3567" fill="#9b9eab"></path></svg>