<?xml version="1.0" standalone="no"?><!DOCTYPE svg PUBLIC "-//W3C//DTD SVG 1.1//EN" "http://www.w3.org/Graphics/SVG/1.1/DTD/svg11.dtd"><svg t="1710421058749" class="icon" viewBox="0 0 1024 1024" version="1.1" xmlns="http://www.w3.org/2000/svg" p-id="29881" xmlns:xlink="http://www.w3.org/1999/xlink" width="200" height="200"><path d="M501.76 226.986667c26.453333 7.68 54.613333-6.826667 63.146667-33.28 7.68-26.453333-6.826667-54.613333-33.28-63.146667-26.453333-7.68-54.613333 6.826667-63.146667 33.28-7.68 27.306667 6.826667 55.466667 33.28 63.146667M445.44 240.64c20.48 11.946667 24.746667 38.4 8.533333 55.466667l-64.853333 83.626666c-2.56 2.56-5.12 6.826667-6.826667 10.24l-60.586666 132.266667c-3.413333 8.533333-11.946667 13.653333-21.333334 11.093333-9.386667-3.413333-14.506667-12.8-12.8-22.186666l46.08-140.8c1.706667-5.12 3.413333-9.386667 6.826667-13.653334l58.026667-104.96c11.093333-15.36 30.72-19.626667 46.933333-11.093333zM456.533333 721.92l-99.84 70.826667c-8.533333 5.973333-11.093333 18.773333-5.12 28.16 5.973333 8.533333 17.92 11.946667 27.306667 5.973333l19.626667-11.946667 58.026666-93.013333z" fill="#9b9eab" p-id="29882"></path><path d="M733.866667 741.546667c-108.373333 25.6-344.746667-155.306667-422.4-228.693334l5.12-6.826666C418.133333 601.6 653.653333 768 743.253333 728.746667c11.946667-5.12 12.8-8.533333 13.653334-8.533334-1.706667-4.266667-25.6-9.386667-47.786667-15.36-61.44-15.36-163.84-40.106667-235.52-110.933333l5.973333-5.973333C549.546667 657.066667 651.093333 682.666667 711.68 697.173333c38.4 9.386667 52.906667 13.653333 54.613333 23.04 0.853333 5.973333-4.266667 11.093333-18.773333 17.066667-5.12 2.56-8.533333 3.413333-13.653333 4.266667z" fill="#9b9eab" p-id="29883"></path><path d="M428.373333 450.56c24.746667-12.8 55.466667-2.56 68.266667 22.186667L582.826667 640c5.973333 12.8 5.12 27.306667-3.413334 38.4l-159.573333 208.213333c-5.973333 7.68-17.066667 10.24-26.453333 5.973334-10.24-5.973333-13.653333-18.773333-7.68-29.013334l118.613333-200.533333c0.853333-1.706667 0.853333-4.266667 0-5.973333L409.6 525.653333c-17.92-25.6-9.386667-61.44 18.773333-75.093333z" fill="#9b9eab" p-id="29884"></path></svg>