<?xml version="1.0" standalone="no"?><!DOCTYPE svg PUBLIC "-//W3C//DTD SVG 1.1//EN" "http://www.w3.org/Graphics/SVG/1.1/DTD/svg11.dtd"><svg t="1710421084079" class="icon" viewBox="0 0 1091 1024" version="1.1" xmlns="http://www.w3.org/2000/svg" p-id="2230" xmlns:xlink="http://www.w3.org/1999/xlink" width="213.0859375" height="200"><path d="M533.853571 81.491402m-81.491403 0a81.491402 81.491402 0 1 0 162.982805 0 81.491402 81.491402 0 1 0-162.982805 0Z" p-id="2231" fill="#9b9eab"></path><path d="M193.287419 218.583709l183.016107-50.932127c11.205068-3.140814 23.089231-3.140814 34.294299-0.169773l202.709863 54.412488c13.836561 3.735023 25.720724 12.648145 33.105882 24.956742l79.878551 132.508415c5.347873 8.828235 16.807602 11.799276 25.720724 6.451403l124.274388-73.68181c35.652488-12.478371 66.636199 28.521991 41.59457 65.447783L736.478546 483.940087c-18.675113 10.950407-42.613212 4.753665-53.733393-13.751674L589.369588 314.251219c-6.706063-11.205068-23.343891-10.016652-28.352217 2.037285l-83.528687 201.351673c-3.310588 7.979366-1.35819 17.232036 4.923439 23.174117l145.071673 138.620271c3.395475 3.225701 5.942081 7.215385 7.470045 11.629502l96.346606 275.203256c8.318914 66.636199-67.824615 71.389864-89.216108 35.652488l-84.038008-239.380993c-1.867511-5.262986-4.923439-10.101538-8.913123-14.006335l-153.220813-151.098641c-7.554932-7.385158-20.287964-2.122172-20.287964 8.488687v145.835655c0 29.880181-24.19276 54.157828-54.157827 54.157828H66.381538c-26.314932 0-47.536651-21.306606-47.536651-47.536651 0-26.314932 21.306606-47.536651 47.536651-47.536652h192.268777c6.196742 0 11.120181-5.008326 11.120181-11.12018V520.356557c0-10.950407 2.207059-21.815927 6.536289-31.917466l92.781357-217.819727c4.159457-9.677104-4.668778-19.863529-14.855204-17.147149l-111.880904 29.965068c-8.913122 2.376833-16.29828 8.743348-20.033303 17.232036l-64.344253 147.108958c-37.77466 43.971402-93.375565-0.848869-70.201447-42.782986l88.537013-172.490134c3.480362-6.875837 9.677104-11.884163 16.977375-13.921448z" p-id="2232" fill="#9b9eab"></path></svg>