<?xml version="1.0" standalone="no"?><!DOCTYPE svg PUBLIC "-//W3C//DTD SVG 1.1//EN" "http://www.w3.org/Graphics/SVG/1.1/DTD/svg11.dtd"><svg t="1710471864243" class="icon" viewBox="0 0 1241 1024" version="1.1" xmlns="http://www.w3.org/2000/svg" p-id="7026" xmlns:xlink="http://www.w3.org/1999/xlink" width="242.3828125" height="200"><path d="M876.437174 188.278547m-80.295461 0a80.295462 80.295462 0 1 0 160.590923 0 80.295462 80.295462 0 1 0-160.590923 0Z" p-id="7027" fill="#9b9eab"></path><path d="M319.744258 49.107577m-46.842031 0a46.842031 46.842031 0 1 0 93.684061 0 46.842031 46.842031 0 1 0-93.684061 0Z" p-id="7028" fill="#9b9eab"></path><path d="M9.945431 287.310821h204.081287l25.422078 32.116378h-229.503365zM424.124744 290.879308h183.329861l24.536732 28.547891h-185.561294zM891.831354 290.879308l26.090604 28.547891h213.449693l-2.68314-28.547891z" p-id="7029" fill="#9b9eab"></path><path d="M559.194214 447.919813l105.02191-105.563959c8.248172-8.293343 8.383685-21.645806 0.307161-30.110798L560.82036 203.654659c-13.216951-13.840307-13.207917-35.639694 0.027102-49.461933L702.466685 6.28574c18.736812-20.408129 71.595582 12.376776 51.521717 48.179084l-104.163667 116.350725c-5.754749 6.43231-5.510827 16.234355 0.569151 22.368538l64.783838 65.362024c21.853592 26.316458 68.027096-16.279525 129.802565 28.773745l176.653629 185.452884a33.252873 33.252873 0 0 1 8.763119 28.204594l-28.222663 176.536185c-3.324565 20.769494-22.630528 35.070543-43.463261 32.197685-21.853592-3.017404-36.759927-23.669454-32.730699-45.360431l26.253219-141.303028a33.167049 33.167049 0 0 0-8.889597-29.234486l-59.399489-60.736543c-10.000796-10.22665-26.45197-10.22665-36.452767-0.018068L672.364921 611.826267c-32.902348 27.653511-92.347008 21.880694-119.657222-1.951375-4.79713-4.191842-11.970239-4.119569-16.749301 0.099375L416.942601 715.059417a26.244185 26.244185 0 0 0-8.871529 19.676363v241.085136c0 26.605551-21.564499 48.179084-48.179084 48.179084-26.605551 0-48.179084-21.573533-48.179083-48.179084V699.439384c0-9.368406 3.866613-18.330276 10.678357-24.753551L464.968104 540.22165c6.260661-5.908329 6.558788-15.773613 0.650458-22.043308L150.453455 183.598861c-20.073865-22.747972 30.779325-91.669447 68.252949-65.569808L536.78954 447.748164c6.107081 6.3239 16.207252 6.405207 22.404674 0.171649z" p-id="7030" fill="#9b9eab"></path></svg>