<?xml version="1.0" standalone="no"?><!DOCTYPE svg PUBLIC "-//W3C//DTD SVG 1.1//EN" "http://www.w3.org/Graphics/SVG/1.1/DTD/svg11.dtd"><svg t="1710471843257" class="icon" viewBox="0 0 1155 1024" version="1.1" xmlns="http://www.w3.org/2000/svg" p-id="6217" xmlns:xlink="http://www.w3.org/1999/xlink" width="225.5859375" height="200"><path d="M5.499677 326.688466v23.188507h214.125619l-22.084293-23.188507zM397.311832 326.688466l24.292722 23.188507h172.165463L569.477295 326.688466zM843.782611 326.688466l22.084293 23.188507h203.083472v-23.188507z" p-id="6218" fill="#9b9eab"></path><path d="M828.875714 228.505383m-77.847131 0a77.847131 77.847131 0 1 0 155.694262 0 77.847131 77.847131 0 1 0-155.694262 0Z" p-id="6219" fill="#9b9eab"></path><path d="M329.402633 182.680476h22.6364C356.08782 123.236922 317.900397 77.227979 231.771657 46.401988c56.314946-9.385824 95.054475 3.220626 115.390428 39.199619 1.564304-36.5311 3.588698-83.920311 18.219541-85.576633 14.170754-1.104215 19.783845 34.506707 19.875863 88.337169C401.544655 58.732384 434.579076 39.040557 499.451685 46.401988 420.500339 76.123765 375.963683 119.188135 383.601167 182.680476h17.667434v22.084292h-70.669736l-1.196232-22.084292z" p-id="6220" fill="#9b9eab"></path><path d="M526.873015 474.193136L626.344348 373.985659c6.349234-6.349234 6.53327-16.563219 0.46009-23.188507L527.701176 242.308065c-12.60645-13.802683-12.422415-35.058814 0.460089-48.677461L661.679216 53.027276c25.67299-14.906897 71.497897 22.360346 50.517819 49.413604L611.713505 213.966557c-4.048787 4.508876-3.864751 11.3182 0.276053 15.64304l70.853772 72.786147c5.889145 6.07318 15.090933 7.913538 22.728418 4.324841 29.261687-13.802683 72.786147-7.729502 103.428103 23.648596L966.074381 493.516892c6.441252 6.717306 9.385824 16.011112 7.913538 25.120883l-28.433527 184.127788c-8.005556 35.610922-68.185253 29.537741-70.393682-8.28161l28.893616-151.369421c1.564304-8.373628-1.104215-17.023309-7.269413-22.912453L829.88791 455.145434c-6.441252-6.349234-16.839273-6.165198-23.188507 0.276053L634.349904 631.635738c-39.199619 30.733974-83.09215 27.329312-114.562267-1.564304-5.797127-5.337037-14.722862-5.429055-20.519988-0.092018L390.410491 728.162499c-4.968966 4.416858-7.729502 10.766093-7.729503 17.39138v231.701035c0 25.857026-20.980078 46.745086-46.745085 46.745086-25.857026 0-46.745086-20.980078-46.745086-46.745086V708.470672c0-6.717306 2.760537-13.158558 7.729502-17.759452L435.407237 561.702145c5.153002-4.78493 5.429055-12.974522 0.644125-18.127524L135.152877 221.051934c-15.64304-21.256131 17.483398-78.30722 67.9092-60.455751l300.622431 313.320899c6.257216 6.625288 16.747255 6.717306 23.188507 0.276054z" p-id="6221" fill="#9b9eab"></path></svg>