<?xml version="1.0" standalone="no"?><!DOCTYPE svg PUBLIC "-//W3C//DTD SVG 1.1//EN" "http://www.w3.org/Graphics/SVG/1.1/DTD/svg11.dtd"><svg t="1710471852220" class="icon" viewBox="0 0 1024 1024" version="1.1" xmlns="http://www.w3.org/2000/svg" p-id="6482" xmlns:xlink="http://www.w3.org/1999/xlink" width="200" height="200"><path d="M797.072488 233.92502m-34.703651 0a34.70365 34.70365 0 1 0 69.407301 0 34.70365 34.70365 0 1 0-69.407301 0Z" p-id="6483" fill="#9b9eab"></path><path d="M424.205948 190.714022m-69.082657 0a69.082656 69.082656 0 1 0 138.165313 0 69.082656 69.082656 0 1 0-138.165313 0Z" p-id="6484" fill="#9b9eab"></path><path d="M124.209581 170.203158L241.556033 287.557934h212.933407c28.077576-0.94896 46.057879 20.50254 53.000274 45.425238l67.193059 245.106496v229.015789l151.417462 151.417462c21.451501 35.960607-39.431804 75.392411-56.779467 57.728428l-170.155269-173.809599a20.564972 20.564972 0 0 1-5.868571-14.384243V662.31407c-1.573277-13.252149-16.407027-12.619509-22.084141-4.103837l-208.513249 358.041114c-23.024777 25.863334-77.598328-19.245584-66.876739-44.159958l210.935595-362.053386a22.758402 22.758402 0 0 0 2.264186-17.53912l-64.862279-233.960372c-1.931218-6.950719-8.141082-11.853681-15.349852-12.103408l-113.442395-3.987299L84.777777 206.796405c-10.413592-17.031343 20.18622-49.837072 39.431804-36.593247z" p-id="6485" fill="#9b9eab"></path><path d="M137.611567 183.613467c0.94896 0.94896 368.604542-181.859114 368.604542-181.859114 18.296623-10.721588 48.580116 30.599812 16.407027 45.425239l-365.765985 155.679459-19.245584-19.245584z" p-id="6486" fill="#9b9eab"></path></svg>