<?xml version="1.0" standalone="no"?><!DOCTYPE svg PUBLIC "-//W3C//DTD SVG 1.1//EN" "http://www.w3.org/Graphics/SVG/1.1/DTD/svg11.dtd"><svg t="1710474773438" class="icon" viewBox="0 0 1024 1024" version="1.1" xmlns="http://www.w3.org/2000/svg" p-id="2282" xmlns:xlink="http://www.w3.org/1999/xlink" width="200" height="200"><path d="M711.2 648.8m-45.6 0a45.6 45.6 0 1 0 91.2 0 45.6 45.6 0 1 0-91.2 0Z" fill="#9b9eab" p-id="2283"></path><path d="M878.6 799.7H770.1c60.3-23.6 103-82.2 103-150.9 0-89.4-72.5-161.9-161.9-161.9-11.2 0-22.2 1.2-32.8 3.3v-0.5l-123.1 34.2 148.6-131.8 4.3 12.8c3 8.9 12.7 13.7 21.6 10.7l12.2-4.1c8.9-3 13.7-12.7 10.7-21.6l-38.4-113.8c-0.4-1.1-0.8-2.1-1.4-3.1l43.5-21.3 42.4-67.4c0.7-1.1 1.5-2.2 1.5-3.6 0-2.6-1.3-4.9-3.4-6.3-1.2-0.8-17.1-11-19.1-12.3-1.2-0.8-2.7-1.3-4.3-1.3-2.6 0-4.5 1.5-5.9 3.4l-37.6 58-103.6 51.3c-2.5 1.2-4.2 3.8-4.2 6.8 0 1.1 0.2 2.1 0.6 3 1.2 2.7 9.8 20.2 10.4 21.2 1.3 2.4 3.8 3.9 6.7 3.9 1.2 0 2-0.8 3-1.2l27.7-13.6 11.4 33.8-264.5 234.8 93.6-26-144.6 40.1-77.6-229.9 53.8-13.1c8.9-2.2 14.8-7.8 14.8-14.1 0-8.3-10-15-22.4-15H176.4c-17 0-28.2 17.6-21 33l1.9 4.1c9.1 19.4 30.5 29.7 51.3 24.6l21.3-5.2v0.1l80.7 239c-12 12.8-19.4 30-19.4 48.9 0 7.8 1.3 15.2 3.5 22.2l-145 128.6h-4.3c-9.4 0-17.1 7.6-17.1 17.1v29.3c0 9.4 7.6 17.1 17.1 17.1h733.2c9.4 0 17.1-7.6 17.1-17.1v-29.3c0-9.3-7.7-16.9-17.1-16.9zM711.2 518.1c72.2 0 130.8 58.6 130.8 130.8s-58.6 130.8-130.8 130.8-130.8-58.6-130.8-130.8 58.5-130.8 130.8-130.8z m-348.6 79.8c28.1 0 50.9 22.8 50.9 50.9s-22.8 50.9-50.9 50.9-50.9-22.8-50.9-50.9 22.8-50.9 50.9-50.9z m-24 118.2c7.5 2.7 15.6 4.2 24 4.2L651 799.7H244.4l94.2-83.6z" fill="#9b9eab" p-id="2284"></path><path d="M362.6 648.8m-40.3 0a40.3 40.3 0 1 0 80.6 0 40.3 40.3 0 1 0-80.6 0Z" fill="#9b9eab" p-id="2285"></path></svg>