<?xml version="1.0" standalone="no"?><!DOCTYPE svg PUBLIC "-//W3C//DTD SVG 1.1//EN" "http://www.w3.org/Graphics/SVG/1.1/DTD/svg11.dtd"><svg t="1710469780751" class="icon" viewBox="0 0 1208 1024" version="1.1" xmlns="http://www.w3.org/2000/svg" p-id="3293" xmlns:xlink="http://www.w3.org/1999/xlink" width="235.9375" height="200"><path d="M939.451498 198.968342m-30.260361 0a30.260361 30.260361 0 1 0 60.520723 0 30.260361 30.260361 0 1 0-60.520723 0Z" p-id="3294" fill="#9b9eab"></path><path d="M620.200375 198.968342m-72.624868 0a72.624867 72.624867 0 1 0 145.249735 0 72.624867 72.624867 0 1 0-145.249735 0Z" p-id="3295" fill="#9b9eab"></path><path d="M235.376514 0h41.355827v215.857245l-41.355827 17.147538zM976.772611 350.020135c-76.659582-44.381863-139.706312-0.50865-141.21502 52.451293l-5.043394 149.793099-30.260361 54.718665-81.884021-46.278524a29.530147 29.530147 0 0 1-15.000863-25.613542l-0.456923-137.163063c-1.008679-25.466982-9.328123-35.812405-30.769011-49.425257L469.898625 233.004783c-24.36347-10.897179-47.4079-11.095466-74.142196-3.026036L88.618072 311.181694c-33.795047 19.673546-4.534744 68.090124 19.673545 59.512044l294.542806-82.711655c21.940917-6.302087 45.140528 12.612795 30.260361 36.821084l-371.202388 637.493568c-20.846027 42.364506 48.416578 81.702976 74.642225 50.433936l209.124099-359.72759c5.948618-10.241968 19.070063-13.724927 29.320652-7.793552l213.581252 123.558832a23.973793 23.973793 0 0 1 11.974826 20.759815v191.433426c0 23.673776 19.190759 42.873156 42.873156 42.873156 23.673776 0 42.873156-19.190759 42.873156-42.873156V746.370521c0-11.85413-6.198632-22.846142-16.345768-28.967184l-157.328015-95.005465c-9.604001-5.802058-12.785218-18.225186-7.155584-27.92402l106.187142-182.915695c7.733203-16.311283 27.570552-22.863384 29.760333-1.008678V564.334187c0 11.733434 6.25036 22.578885 16.397495 28.458534l131.119612 75.978508c19.182138 11.905857 36.898674 12.440371 47.657914 0 14.457728-24.544515 6.293465-31.92425-9.836773-45.640556l33.605381-58.253351c48.313124-30.889708 89.996556-57.88264 121.481126-79.685618 45.718147-29.260304 42.355885-110.96328-5.052014-135.171569z m8.069429 81.702976c-12.302432 35.881374-60.115527 66.477962-123.058803 94.815799-1.051785-53.451351-4.414047-113.980695 5.043394-135.162948 20.173574-57.494687 133.14559-29.518939 118.015409 40.347149z" p-id="3296" fill="#9b9eab"></path><path d="M235.376514 372.211066l41.355827-10.595437v46.907871l48.416578 35.553769-21.182253 26.475661-43.114549-27.984368-248.143585-2.275993v-31.769069h222.667982zM540.006106 607.483221l514.434765 296.560163v-41.605842L558.412338 577.73151z" p-id="3297" fill="#9b9eab"></path></svg>