<?xml version="1.0" standalone="no"?><!DOCTYPE svg PUBLIC "-//W3C//DTD SVG 1.1//EN" "http://www.w3.org/Graphics/SVG/1.1/DTD/svg11.dtd"><svg t="1710421097635" class="icon" viewBox="0 0 1623 1024" version="1.1" xmlns="http://www.w3.org/2000/svg" p-id="2445" xmlns:xlink="http://www.w3.org/1999/xlink" width="316.9921875" height="200"><path d="M803.4 503.8L1227.6 90.5c9.8-9.5 25.3-9.5 35.1-0.1l207.9 200.3c26.1 45.3-41.1 87-68.2 64.4l-144-136.9c-10.2-9.7-26.3-9.4-36.1 0.7L1076.9 367.5l223.8 221.6c-28.7 20.5-75.7 28.7-133.1 30-63.4 1.3-110.8-22.7-185.8-30-65.8-4-114.5 27.1-170.4 30-74.3 8.4-111.8-28.1-186.5-29.3-69.8-0.2-115.1 25-178.5 29.3-71.9 4.6-121-28.9-167.5-28.5-55.6 1.5-66.6 21.9-92.9 10.2-15.5-42.8-9.2-77.4 48.3-92.9h558.9c3.9 0 7.5-1.5 10.2-4.1z" p-id="2446" fill="#9b9eab"></path><path d="M730.6 352.1m-110.8 0a110.8 110.8 0 1 0 221.6 0 110.8 110.8 0 1 0-221.6 0Z" p-id="2447" fill="#9b9eab"></path><path d="M1623.6 668.1c-34.3 11.3-64.2 11.3-98.8 13.9-68.5 5.1-120.1-38.1-170.3-38-64.2-1.5-126.6 34.4-180.4 38-71.8 3.3-137.6-29.9-178.9-34.4-75.8-6.6-123 27.8-181.5 34.4-68.1 5.5-114.8-33.4-177.8-38-68.5 1.8-116.5 31.8-173.2 38-73.7 9.6-132.8-30-188.4-34.4-70.5-3.7-119.8 32.9-181.8 34.4-29.9-0.9-79.2-4.8-92.5-19v75.9c10.1 7.3 51.6 15.7 94 16.3 81.3 0.4 143.9-33.2 179.7-36.6 73.6-5.1 131 31.1 188.3 36.6 72.9-0.4 144.3-39.1 174.6-35.8 62.8-5.5 115.4 41.8 175.3 41.7 70.4 2.6 145.1-39.7 184.8-43.2 63.5-2.9 111.1 38.4 176.1 39.5 74.7 2.2 136.2-35.2 182.6-39.5 45.8-3.3 116.2 37.3 171 37.3 29.7-0.8 61.3-4 97.4-13.2l-0.2-73.9zM1623.6 800.9c-34.3 11.3-64.2 11.3-98.8 13.9-68.5 5.1-120.1-38.1-170.3-38-64.2-1.5-126.6 34.4-180.4 38-71.8 3.3-137.6-29.9-178.9-34.4-75.8-6.6-123 27.8-181.5 34.4-68.1 5.5-114.8-33.4-177.8-38-68.5 1.8-116.5 31.8-173.2 38-73.6 9.5-132.7-30-188.3-34.4-70.5-3.7-119.8 32.9-181.8 34.4-29.9-0.9-79.2-4.8-92.5-19v75.9c10.1 7.3 51.6 15.7 94 16.3 81.3 0.4 143.9-33.2 179.7-36.6 73.6-5.1 131 31.1 188.3 36.6 72.9-0.4 144.3-39.1 174.6-35.8 62.8-5.5 115.4 41.8 175.3 41.7 70.4 2.6 145.1-39.7 184.8-43.2 63.5-2.9 111.1 38.4 176.1 39.5 74.7 2.2 136.2-35.2 182.6-39.5 45.8-3.3 116.2 37.3 171 37.3 29.7-0.8 61.3-4 97.4-13.2l-0.3-73.9z" p-id="2448" fill="#9b9eab"></path></svg>