<?xml version="1.0" standalone="no"?><!DOCTYPE svg PUBLIC "-//W3C//DTD SVG 1.1//EN" "http://www.w3.org/Graphics/SVG/1.1/DTD/svg11.dtd"><svg t="1710472009892" class="icon" viewBox="0 0 1222 1024" version="1.1" xmlns="http://www.w3.org/2000/svg" p-id="8102" xmlns:xlink="http://www.w3.org/1999/xlink" width="238.671875" height="200"><path d="M528.827839 82.82879m-82.828791 0a82.82879 82.82879 0 1 0 165.657581 0 82.82879 82.82879 0 1 0-165.657581 0Z" p-id="8103" fill="#9b9eab"></path><path d="M1079.447248 520.822735m-38.27386 0a38.27386 38.27386 0 1 0 76.54772 0 38.27386 38.27386 0 1 0-76.54772 0Z" p-id="8104" fill="#9b9eab"></path><path d="M1037.404746 102.91014c-27.193871-46.019007-67.772297-68.395885-116.71042-62.74744-117.758771 29.073674-67.980159 153.104478-85.964807 250.366174l-40.1627 67.772296v23.840955l40.1627-20.08135 38.906486-58.987836c80.316362-53.953942 205.811243-99.141498 163.768741-200.162799z m-27.609597 67.76326c-16.945334 31.378239-86.344382 68.676048-136.168182 88.477235-1.67194-46.22687-3.398104-97.695496 0-135.535556 5.015819-39.530074 50.826963-66.516083 104.789943-40.786289 38.788998 22.882978 44.247655 65.259869 31.378239 87.84461z" p-id="8105" fill="#9b9eab"></path><path d="M499.84454 330.754836l-102.214252 179.141548c-3.678267 6.443746-2.584728 14.559431 2.666066 19.810224l162.060652 161.771451c3.316767 3.307729 5.720745 7.419797 6.985996 11.920478l72.426615 258.554159c6.588346 71.531901-81.888889 62.855891-94.12568 24.47358l-54.36063-226.651744c-0.768188-3.199279-2.413015-6.118395-4.762768-8.422961L321.751344 587.32978c-14.116593-10.4564-30.4293-7.528247-31.269789 7.112521v206.543282c0 4.826031-1.897877 9.462274-5.286944 12.896528l-202.521589 205.476856c-41.102601 18.508823-81.256263-21.644839-66.832396-62.123852L189.830793 780.51562c3.117941-3.163129 4.871219-7.419797 4.898331-11.857215l1.753277-293.899865c0.063263-10.112975 2.801628-20.018087 7.943972-28.730248l138.987885-235.30968c24.157268-34.080455 84.085005-55.101706 127.383721-28.748323l168.739372 168.124821c3.253504 3.244467 7.654772 5.061006 12.245828 5.061006h180.451987c32.20969 8.784461 26.353383 66.931808 0 68.395885H627.878962c-4.961594 0-9.7334-1.915952-13.321292-5.350206L520.169903 327.79957c-6.118395-5.865345-16.12292-4.410305-20.325363 2.955266z" p-id="8106" fill="#9b9eab"></path></svg>