<?xml version="1.0" standalone="no"?><!DOCTYPE svg PUBLIC "-//W3C//DTD SVG 1.1//EN" "http://www.w3.org/Graphics/SVG/1.1/DTD/svg11.dtd"><svg t="1710474789621" class="icon" viewBox="0 0 1024 1024" version="1.1" xmlns="http://www.w3.org/2000/svg" p-id="2785" xmlns:xlink="http://www.w3.org/1999/xlink" width="200" height="200"><path d="M379 850.9H154.3c-11.8 0-20.4-11.1-17.5-22.5l29.5-115.2c2.5-9.7 12.4-15.5 22.1-12.9L312 733c3.5 0.9 6.6 2.9 9 5.6l71.6 82.4c10.1 11.7 1.8 29.9-13.6 29.9zM870.6 748.9H386.4l38.4 44.2c13.8 15.8 17.6 37.5 11.6 57.3h434.2c9.4 0 17.1-7.6 17.1-17.1V766c0-9.5-7.6-17.1-17.1-17.1zM608.7 276.1H444.2c-2.3-5.8-7.8-9.9-14.5-10.2-72.8-3.9-141.5-35.2-192.3-87.6-6-6.2-15.7-7-22.2-1.3l-36.7 32c-7 6.1-7.7 17-1.3 23.7 32.8 34.4 71.7 61.9 114.2 81.3l-91 345.3 112.9 30L404 345.2c8.1 0.9 16.3 1.6 24.5 2 6.6 0.3 12.5-3.6 15.3-9.3h165.1c9.4 0 17.1-7.6 17.1-17.1v-27.5c-0.2-9.5-7.9-17.2-17.3-17.2z" fill="#9b9eab" p-id="2786"></path></svg>