<?xml version="1.0" standalone="no"?><!DOCTYPE svg PUBLIC "-//W3C//DTD SVG 1.1//EN" "http://www.w3.org/Graphics/SVG/1.1/DTD/svg11.dtd"><svg t="1710471819533" class="icon" viewBox="0 0 1206 1024" version="1.1" xmlns="http://www.w3.org/2000/svg" p-id="5689" xmlns:xlink="http://www.w3.org/1999/xlink" width="235.546875" height="200"><path d="M1005.725567 262.49035m-93.485646 0a93.485647 93.485647 0 1 0 186.971293 0 93.485647 93.485647 0 1 0-186.971293 0Z" p-id="5690" fill="#9b9eab"></path><path d="M611.990043 88.096569m-88.09657 0a88.096569 88.096569 0 1 0 176.193139 0 88.096569 88.096569 0 1 0-176.193139 0Z" p-id="5691" fill="#9b9eab"></path><path d="M587.662722 318.711291L469.291954 526.456173c-3.400787 5.964872-1.520458 13.558163 4.273475 17.23785L660.140863 662.424663a33.387088 33.387088 0 0 1 14.196935 19.064198l80.13441 283.066009c10.940097 74.016593-92.145125 68.618519-97.084362 37.759528l-68.258647-247.285774a30.078069 30.078069 0 0 0-13.540169-17.795651L394.447657 628.812655c-18.19151-9.113748-28.16895-4.34545-28.762739 10.634205v197.893397c0 12.172657-6.432705 23.445635-16.922962 29.635427l-259.35047 153.026403c-60.530404 22.770876-97.084363-58.128261-62.92355-81.501922L247.413115 808.865416a28.320996 28.320996 0 0 0 13.990009-24.426285V529.991911c0-6.216782 1.619422-12.325603 4.696324-17.732673l172.693387-303.110857c20.971518-27.800082 64.120123-40.152674 101.879652-22.177088l364.972786 208.554593c47.34111 35.96017-16.779014 92.891858-41.952032 65.325693L608.814176 312.989333c-7.413355-4.291469-16.913965-1.727384-21.151454 5.721958z" p-id="5692" fill="#9b9eab"></path></svg>