<?xml version="1.0" standalone="no"?><!DOCTYPE svg PUBLIC "-//W3C//DTD SVG 1.1//EN" "http://www.w3.org/Graphics/SVG/1.1/DTD/svg11.dtd"><svg t="1710421003992" class="icon" viewBox="0 0 1024 1024" version="1.1" xmlns="http://www.w3.org/2000/svg" p-id="25174" xmlns:xlink="http://www.w3.org/1999/xlink" width="200" height="200"><path d="M765.984 462.496l-116.224-43.04-73.184-133.44c-4.32-4.32-8.64-8.64-8.64-12.96l-8.576-8.576c-30.144-30.144-73.184-34.464-111.936-17.248L245.12 316.16c-17.216 4.288-30.112 21.536-34.432 38.72l-17.216 159.296c-4.288 25.824 17.216 51.68 43.04 55.968h4.32c25.824 0 47.36-17.216 47.36-43.04l12.896-124.832 77.504-25.856c-12.928 30.144-25.856 60.288-34.432 81.792-17.248 38.752-17.248 90.4 4.288 133.44l-133.44 309.984c-12.928 30.112 0 68.864 30.112 81.792 12.928-4.32 21.536 0 30.144 0 25.824 0 47.36-12.928 55.968-38.72l99.008-223.872c60.256 107.616 129.152 232.448 129.152 236.768 12.896 21.504 34.432 34.432 55.968 34.432 8.576 0 21.504-4.32 30.112-8.64 30.144-17.184 43.072-55.936 25.824-86.08-4.288-8.608-107.616-202.304-176.48-318.56l60.256-133.44 21.536 38.72c4.288 12.928 17.216 17.248 25.824 21.536l133.44 51.648c4.32 0 12.928 4.32 17.248 4.32 21.504 0 38.72-12.928 47.36-34.432 4.288-25.856-8.64-56-34.464-64.576zM559.36 221.408c51.648 0 94.72-43.04 94.72-94.72C654.08 75.072 610.976 32 559.36 32c-51.648 0-94.72 43.04-94.72 94.72 0 51.648 43.072 94.72 94.72 94.72z" fill="#9b9eab" p-id="25175"></path></svg>