<?xml version="1.0" standalone="no"?>
<svg t="1710128396425" class="icon" viewBox="0 0 1024 1024" version="1.1"
    xmlns="http://www.w3.org/2000/svg" p-id="50909" xmlns:xlink="http://www.w3.org/1999/xlink"
    width="200" height="200">
    <path
        d="M911.392 521.943c-23.926-237.046-227.895-282.734-252.951-309.595-25.029-26.887-35.855-40.882-54.203-40.882-53.396 0-53.396 14.025-53.396 14.025s2.257-26.902-37.779-26.902-55.698 26.887-55.698 26.887c-3.543-4.428-51.264-40.953-83.181 22.29-88.462 49.104-195.41 105.215-237.397 230.229-76.51 227.801 90.454 408.399 387.147 408.399s403.298-168.447 387.503-324.509zM361.739 341.253c-40.837 41.438-67.339 26.902-39.845-14.706 27.477-41.632 67.806-54.939 67.806-54.939s12.866 28.31-27.963 69.747zM463.635 329.655c-17.29 47.443-41.218 56.915-34.501 13.948s19.715-65.676 33.614-67.795c13.909-2.162 18.156 6.337 0.914 53.906zM534.265 337.506c-20.213-55.573-15.196-65.676 1.062-63.082 16.279 2.563 31.513 29.037 39.357 79.378 7.863 50.358-20.213 39.269-40.446-16.279zM659.263 341.098c-40.096-42.118-26.741-70.178-26.741-70.178s40.096 14.025 66.896 56.137c26.741 42.15-0.001 56.167-40.137 14.055z"
        p-id="50910" fill="#f9c933"></path>
</svg>