<?xml version="1.0" standalone="no"?>
<svg t="1710128681788" class="icon" viewBox="0 0 1024 1024" version="1.1"
    xmlns="http://www.w3.org/2000/svg" p-id="16520" xmlns:xlink="http://www.w3.org/1999/xlink"
    width="200" height="200">
    <path
        d="M991.5 416c-24.4-12.8-50.1-20.5-75.8-27-1.3 0-2.6-1.3-5.1-1.3-5.1 0-9 2.6-10.3 7.7s1.3 7.7 5.1 10.3c12.8 7.7 25.7 14.1 35.9 23.1 12.8 10.3 12.8 24.4 1.3 37.2-11.6 12.8-27 20.5-42.4 27-32.1 12.8-66.8 20.5-100.1 27-64.2 11.6-129.7 18-195.2 20.5-44.9 1.3-89.9 2.6-134.8 1.3-87.3-1.3-173.3-7.7-259.4-24.4-35.9-6.4-71.9-15.4-104-32.1-9-5.1-18-11.6-25.7-19.3-10.3-11.6-10.3-24.4 1.3-34.7 10.3-9 23.1-15.4 34.7-23.1 3.9-2.6 7.7-5.1 6.4-10.3s-5.1-7.7-11.6-7.7c-3.9 0-7.7 1.3-11.6 2.6-21.8 7.7-44.9 16.7-66.8 25.7C19.6 425 8 433.9 0.3 449.4v29.5c3.9 7.7 10.3 12.8 16.7 16.7C65.8 529 96.6 573.9 104.3 633c7.7 51.4 24.4 98.9 60.3 137.4 30.8 33.4 69.3 56.5 111.7 73.2 47.5 19.3 98.9 28.2 150.2 33.4 39.8 3.9 78.3 5.1 118.1 3.9 65.5-2.6 131-11.6 193.9-34.7 47.5-18 89.9-42.4 123.3-82.2 30.8-34.7 47.5-75.8 53.9-122 6.4-47.5 24.4-88.6 59.1-123.3 9-9 20.5-16.7 30.8-25.7 6.4-5.1 11.6-10.3 16.7-15.4v-32.1c-3.8-12.8-16.7-21.8-30.8-29.5z"
        p-id="16521" fill="#59adf8"></path>
    <path
        d="M379.1 498.1c52.6 3.9 105.3 3.9 157.9 5.1 51.4 1.3 102.7-2.6 152.8-7.7 57.8-6.4 114.3-15.4 170.8-32.1 14.1-3.9 29.5-9 43.7-14.1-3.9-19.3-15.4-47.5-28.2-68-33.4-55.2-83.5-93.7-142.5-119.4-37.2-16.7-77-27-116.8-33.4-5.1-1.3-7.7-2.6-9-9-9-39.8-34.7-64.2-74.5-73.2-3.9-1.3-9-1.3-12.8-2.6h-9c-1.3 0-2.6 1.3-3.9 1.3-24.4 2.6-44.9 12.8-61.6 32.1-12.8 14.1-19.3 30.8-23.1 50.1h-2.6c-50.1 7.7-98.9 21.8-143.8 44.9-57.8 29.5-104 71.9-131 131-6.4 14.1-11.6 29.5-18 44.9l23.1 7.7c74.4 24.5 151.5 37.3 228.5 42.4z m138.7-315.8c23.1 1.3 46.2 19.3 50.1 38.5H462.5c6.5-23.1 29.6-39.8 55.3-38.5z"
        p-id="16522" fill="#59adf8"></path>
</svg>