<?xml version="1.0" standalone="no"?><!DOCTYPE svg PUBLIC "-//W3C//DTD SVG 1.1//EN" "http://www.w3.org/Graphics/SVG/1.1/DTD/svg11.dtd"><svg t="1710315136004" class="icon" viewBox="0 0 1024 1024" version="1.1" xmlns="http://www.w3.org/2000/svg" p-id="24832" xmlns:xlink="http://www.w3.org/1999/xlink" width="200" height="200"><path d="M724.9 723.8l-17.3-44 61.2-24c75.7-29.7 124.6-101.4 124.6-182.7V365c0-37.8-30.8-68.6-68.6-68.6H724.4v-47.3h100.4c63.9 0 115.8 52 115.8 115.8V473c0.1 101-60.6 190-154.5 226.8l-61.2 24z" fill="#56432E" p-id="24833"></path><path d="M700.4 388.8s-26.6-51.9-148.7-41.3c-150.3 13.1-153.6 65.4-255.3 75.8C217 431.4 127 388.8 127 388.8v386.8c0 70.7 57.3 128.1 128.1 128.1h317.1c70.7 0 128.1-57.3 128.1-128.1V388.8z" fill="#dbdbdb" p-id="24834"></path><path d="M600.6 927.3H227c-68.1 0-123.5-55.4-123.5-123.5V151.3c0-30.9 25.1-56 56-56H668c30.9 0 56 25.1 56 56v652.6c0.1 68-55.3 123.4-123.4 123.4zM159.5 142.5c-4.8 0-8.8 3.9-8.8 8.8v652.6c0 42 34.2 76.2 76.2 76.2h373.6c42 0 76.2-34.2 76.2-76.2V151.3c0-4.8-3.9-8.8-8.8-8.8H159.5z" fill="#56432E" p-id="24835"></path><path d="M209.4 734.8c-5.9 0-11.6-2.4-15.8-6.5-4.2-4.2-6.5-9.9-6.5-15.8V612.3c0-12.3 10-22.3 22.3-22.3s22.3 10 22.3 22.3v100.2c0 5.9-2.4 11.6-6.5 15.8-4.2 4.2-9.8 6.5-15.8 6.5z m0 0M233 835.4c-8.5 0-16.2-4.8-20-12.4-2-4-3.5-6.4-4.9-8.6-3.9-6.3-6.7-11.3-9.9-23.5-1.5-5.7-0.6-11.8 2.4-16.9 3-5.1 7.9-8.8 13.6-10.3 5.7-1.5 11.8-0.6 16.9 2.4 5.1 3 8.8 7.9 10.3 13.6 1.7 6.5 2.3 7.4 4.5 11 2.5 4 4.9 8.1 7 12.4 3.4 6.9 3.1 15.1-1 21.7-4 6.6-11.2 10.6-18.9 10.6z m0 0" fill="#FFFFFF" p-id="24836"></path></svg>