<?xml version="1.0" standalone="no"?>
<svg t="1709636330476" class="icon" viewBox="0 0 1024 1024" version="1.1"
    xmlns="http://www.w3.org/2000/svg" p-id="38218" xmlns:xlink="http://www.w3.org/1999/xlink"
    width="200" height="200">
    <path
        d="M589.9 191.7c-15.9-16-41.8-16-57.6 0l-45 45c-15.9 15.9-15.9 41.8 0 57.6L521 328 328.7 520.4l-33.5-33.6c-15.9-16.1-42-16.1-57.9 0l-44.7 44.7c-16 16.1-16 42 0 57.9l242.2 242.3c16 16.1 42 16.1 57.9 0l44.7-44.7c16-16.1 16-42 0-57.9l-33.5-33.6L696.2 503l33.7 33.7c16 16 41.8 16 57.6 0l45-45c16-16 16-41.8 0-57.7L589.9 191.7z m356.5 123.4l-70.2-70.2 1-1c15.8-15.8 15.8-41.2 0-56.9L837 146.8c-15.8-15.8-41.2-15.8-56.8 0l-1 1L709 77.6c-16.1-16.1-42.2-16.1-58.2 0s-16.1 42.2 0 58.2l237.4 237.5c16.1 16.1 42.2 16.1 58.2 0 16-16 16-42.1 0-58.2zM136.6 650.2c-16.1-16.1-42.2-16.1-58.2 0-16.1 16.1-16.1 42.2 0 58.2l70.2 70.2-3 3c-15.9 15.9-15.9 41.7 0 57.5l39.5 39.6c15.9 15.9 41.7 15.9 57.5 0l3-3 70.2 70.2c16.1 16.1 42.2 16.1 58.2 0 16.1-16.1 16.1-42.2 0-58.2L136.6 650.2z"
        fill="#ea4c89" p-id="38219"></path>
</svg>