<?xml version="1.0" standalone="no"?><!DOCTYPE svg PUBLIC "-//W3C//DTD SVG 1.1//EN" "http://www.w3.org/Graphics/SVG/1.1/DTD/svg11.dtd"><svg t="1714361003756" class="icon" viewBox="0 0 1024 1024" version="1.1" xmlns="http://www.w3.org/2000/svg" p-id="7921" xmlns:xlink="http://www.w3.org/1999/xlink" width="200" height="200"><path d="M0 0m184.32 0l655.36 0q184.32 0 184.32 184.32l0 655.36q0 184.32-184.32 184.32l-655.36 0q-184.32 0-184.32-184.32l0-655.36q0-184.32 184.32-184.32Z" fill="#9ad14b" p-id="7922" data-spm-anchor-id="a313x.search_index.0.i9.3a1a3a81Vh1IIv" class="selected"></path><path d="M266.24 819.2a51.2 51.2 0 0 1-51.2-51.2V256a51.2 51.2 0 0 1 51.2-51.2 51.2 51.2 0 0 1 51.2 51.2v512a51.2 51.2 0 0 1-51.2 51.2z" fill="#FFFFFF" p-id="7923"></path><path d="M266.24 819.2a51.02592 51.02592 0 0 1-35.45088-14.26432 51.2 51.2 0 0 1-1.47456-72.3968l245.76-256a51.2 51.2 0 0 1 72.3968-1.47456 51.2 51.2 0 0 1 1.47456 72.3968l-245.76 256A51.05664 51.05664 0 0 1 266.24 819.2z" fill="#FFFFFF" p-id="7924"></path><path d="M768 819.2a51.03616 51.03616 0 0 1-36.20864-14.99136l-256-256a51.2 51.2 0 0 1 0-72.40704 51.2 51.2 0 0 1 72.40704 0l256 256A51.2 51.2 0 0 1 768 819.2z" fill="#FFFFFF" p-id="7925"></path><path d="M517.72416 433.5616l214.05696-214.05696a51.2 51.2 0 0 1 72.40704 72.40704l-209.98144 209.98144-61.63456-61.63456a20.48 20.48 0 0 0-14.848-6.69696z" fill="#FFFFFF" p-id="7926"></path></svg>