<?xml version="1.0" standalone="no"?><!DOCTYPE svg PUBLIC "-//W3C//DTD SVG 1.1//EN" "http://www.w3.org/Graphics/SVG/1.1/DTD/svg11.dtd"><svg t="1712638247691" class="icon" viewBox="0 0 1024 1024" version="1.1" xmlns="http://www.w3.org/2000/svg" p-id="23671" xmlns:xlink="http://www.w3.org/1999/xlink" width="200" height="200"><path d="M512 961.4336c-18.8416 0-36.5568-6.144-51.4048-17.92-1.8432-1.4336-251.0848-192.2048-351.6416-350.3104C75.9808 541.696 30.72 470.9376 30.72 370.176 30.72 200.6016 158.1056 62.5664 314.6752 62.5664c73.4208 0 144.7936 31.744 197.3248 86.4256 52.9408-55.296 123.0848-86.4256 197.2224-86.4256C865.8944 62.5664 993.28 200.6016 993.28 370.176c0 100.6592-45.2608 171.4176-78.336 223.1296-100.4544 156.672-349.696 348.8768-352.1536 350.72-14.2336 11.264-31.9488 17.408-50.7904 17.408zM314.6752 124.0064C192 124.0064 92.16 234.496 92.16 370.176c0 82.7392 38.0928 142.2336 68.608 189.952 93.2864 146.7392 334.9504 332.9024 337.3056 334.6432 9.0112 7.168 19.456 6.656 27.2384 0.4096 2.9696-2.2528 244.6336-189.7472 337.92-335.1552 30.5152-47.7184 68.608-107.2128 68.608-189.952 0-135.7824-99.84-246.1696-222.5152-246.1696-66.7648 0-129.6384 33.1776-172.6464 90.9312-5.8368 7.7824-14.9504 12.3904-24.6784 12.3904h-0.1024c-9.728 0-18.8416-4.7104-24.6784-12.4928-42.3936-57.6512-105.2672-90.7264-172.544-90.7264z" fill="#555555" p-id="23672"></path></svg>