<?xml version="1.0" standalone="no"?><!DOCTYPE svg PUBLIC "-//W3C//DTD SVG 1.1//EN" "http://www.w3.org/Graphics/SVG/1.1/DTD/svg11.dtd"><svg t="1712638260230" class="icon" viewBox="0 0 1024 1024" version="1.1" xmlns="http://www.w3.org/2000/svg" p-id="23877" xmlns:xlink="http://www.w3.org/1999/xlink" width="200" height="200"><path d="M512 961.536c-18.432 0-36.864-6.144-51.2-17.408-2.048-2.048-250.88-192.512-352.256-351.232C75.776 541.696 30.72 471.04 30.72 370.688c0-169.984 126.976-307.2 283.648-307.2 73.728 0 144.384 31.744 197.632 86.016 53.248-55.296 122.88-86.016 197.632-86.016 156.672 0 283.648 138.24 283.648 307.2 0 100.352-45.056 171.008-77.824 223.232C814.08 749.568 565.248 942.08 563.2 944.128c-14.336 11.264-32.768 17.408-51.2 17.408z" fill="#d81e06" p-id="23878"></path></svg>