<?xml version="1.0" standalone="no"?>
<svg t="1710128598998" class="icon" viewBox="0 0 1024 1024" version="1.1"
    xmlns="http://www.w3.org/2000/svg" p-id="11185" xmlns:xlink="http://www.w3.org/1999/xlink"
    width="200" height="200">
    <path
        d="M117.248 577.536v-51.2H911.36a448 448 0 0 1-4.096 51.2zM537.088 358.4a62.464 62.464 0 0 0 56.832 79.872l3.072 12.8a69.12 69.12 0 0 1-75.776-45.568 57.344 57.344 0 0 1-5.12-20.992A102.4 102.4 0 0 1 518.656 358.4a228.864 228.864 0 0 1 56.832-92.16s66.56-67.072-30.208-117.76v-14.848h12.8a89.088 89.088 0 0 1 27.136 149.504A212.48 212.48 0 0 0 537.088 358.4z m-143.36-31.232c-3.584 14.848-23.04 94.208 81.92 114.176l4.608 19.456a99.328 99.328 0 0 1-109.568-65.024A78.336 78.336 0 0 1 362.496 358.4a142.848 142.848 0 0 1 4.608-35.84 332.288 332.288 0 0 1 81.92-132.608S544.768 94.208 405.504 22.016L409.6 0h15.872A128.512 128.512 0 0 1 460.8 215.04a316.928 316.928 0 0 0-67.072 113.152z m318.976 595.968H307.2a507.904 507.904 0 0 1-168.96-240.128h745.984a421.376 421.376 0 0 1-171.52 241.152zM121.856 614.4c110.592 2.56 665.6 0 779.264 0 0 9.728-4.096 19.968-6.656 30.72H129.024c-3.072-7.168-5.12-18.944-7.168-30.72z m792.576 409.6H107.52L51.2 977.92h921.6z"
        fill="#ff8469" p-id="11186" data-spm-anchor-id="a313x.search_index.0.i9.28f23a81CNfSf6"
        class=""></path>
</svg>