<?xml version="1.0" standalone="no"?><!DOCTYPE svg PUBLIC "-//W3C//DTD SVG 1.1//EN" "http://www.w3.org/Graphics/SVG/1.1/DTD/svg11.dtd"><svg t="1710410313518" class="icon" viewBox="0 0 1024 1024" version="1.1" xmlns="http://www.w3.org/2000/svg" p-id="33671" xmlns:xlink="http://www.w3.org/1999/xlink" width="200" height="200"><path d="M619.07 710.66a482.65 482.65 0 0 0-32.51 40.65 444.21 444.21 0 0 1-105.91 105.22l-5.49 3.85 43.6-68.55a200.08 200.08 0 0 1 89-76.21zM870.46 474.41l-37.9 48.48a443.57 443.57 0 0 1-102.92 95.66l-4.33 2.89q6-9.24 11-19.05l12.89-24.95a201.89 201.89 0 0 1 92-89.07z" fill="#9B9B9B" p-id="33672"></path><path d="M496.65 210l0.15 0.11 0.44-0.31z" fill="#303030" p-id="33673"></path><path d="M511.12 220.23l-14.32-10.09-0.15-0.11-12 3.85a201 201 0 0 0-88.29 57.42 432.69 432.69 0 0 1-13.92 17.46q-3.79 5.34-7.25 10.94a233.85 233.85 0 0 1-128 100.1l-7 2.22a16.43 16.43 0 0 1-19.56-8L198 405a19.64 19.64 0 0 1 0.44 6.53 3.19 3.19 0 0 1-0.09 0.63 15.63 15.63 0 0 1-7.11 10.9 10 10 0 0 1-0.92 0.57c-3.06 1.76-3.71 2.2-6.15 3.84l-1.95 1.32a10.89 10.89 0 0 1-1.09 0.66 17.27 17.27 0 0 1-7 2.07 10.05 10.05 0 0 1-1.09 0.05h-1.25a17.23 17.23 0 0 1-8.66-3.26l-0.07-0.05a16.59 16.59 0 0 1-1.31-1.1c-0.32-0.3-0.62-0.6-0.91-0.93l-0.43-0.48-30.73 34.91a16.42 16.42 0 0 1 0.16 19.21l-31.7 44.89 1.58 1.47 13.67 12.67 15.34 14.1 14.84 13.75 301.59 279.48L491 774.16a233 233 0 0 1 103.55-88.71l14.63-6.39a201.36 201.36 0 0 0 97.92-91.79l12.9-24.94a235 235 0 0 1 107-103.67l13.23-6.31z m18.64 279.06c-40.29 40.3-85 64-111.84 61.53a24.5 24.5 0 0 1-0.84 7.7L395.54 649a24.71 24.71 0 0 1-41.32 11l-58.88-58.89a24.69 24.69 0 0 1 11.08-41.31l80.43-21.55a25.13 25.13 0 0 1 7.51-0.85c-2.59-26.78 21.1-71.64 61.5-112 50.5-50.5 108-74.91 128.4-54.5s-4 77.89-54.5 128.39z" fill="#FFFFFF" p-id="33674"></path><path d="M396.36 271.3a432.69 432.69 0 0 1-13.92 17.46 204.84 204.84 0 0 1 13.92-17.46zM497.24 209.83l-0.44 0.31-0.15-0.11 0.59-0.2z" fill="#FFFFFF" p-id="33675"></path><path d="M877.56 434.56l-1.28 0.61-36.02 17.18-329.14-232.11-14.32-10.1 0.44-0.31 43.65-14.04 336.67 238.77z" fill="#DDDDDD" p-id="33676"></path><path d="M497.24 209.83l-0.44 0.31-0.15-0.11 0.59-0.2zM445.16 846.23l-26.88 42.24-0.41 0.65-341.4-330.21-1.45-1.41 11.11-15.72 2.66-3.78 9.42-13.33 1.58 1.47 13.67 12.67 15.27 14.15 14.84 13.75 301.59 279.52z" fill="#DDDDDD" p-id="33677"></path><path d="M974.87 385.91a16.43 16.43 0 0 0-6.78-11.15L596 110.86a16.46 16.46 0 0 0-22.39 3.14L534 163.44l-59.37 19.1a233.86 233.86 0 0 0-127.43 99.9 200.74 200.74 0 0 1-110 86l-7 2.23a16.45 16.45 0 0 0-10.69 20.68 15.71 15.71 0 0 0 1.12 2.66 16.43 16.43 0 0 0 19.56 8l7-2.22a233.85 233.85 0 0 0 128-100.1q3.46-5.59 7.25-10.94a204.84 204.84 0 0 1 13.92-17.46 201 201 0 0 1 88.29-57.42l12-3.85 0.59-0.2 43.65-14 336.67 238.74-1.28 0.61-36 17.18-13.28 6.31a235 235 0 0 0-107 103.67l-12.89 24.94a201.36 201.36 0 0 1-97.92 91.79l-14.63 6.39A233 233 0 0 0 491 774.16l-45.83 72.07-26.88 42.24-0.41 0.65L76.47 558.91 75 557.5l11.11-15.72 2.68-3.78 9.42-13.33 31.7-44.89a16.42 16.42 0 0 0-0.16-19.21 16.19 16.19 0 0 0-3.79-3.73 16.46 16.46 0 0 0-22.96 3.94L40 550v0.06l-0.07 0.1a7.11 7.11 0 0 0-0.51 0.79 2.39 2.39 0 0 0-0.21 0.34 9.1 9.1 0 0 0-0.44 0.81c0 0.07-0.07 0.12-0.1 0.19-0.14 0.29-0.28 0.6-0.42 0.91 0 0.07-0.06 0.16-0.09 0.25s-0.17 0.42-0.24 0.62-0.17 0.51-0.25 0.77-0.15 0.52-0.21 0.77-0.11 0.46-0.15 0.69v0.16q-0.08 0.36-0.12 0.72a8.39 8.39 0 0 0-0.1 0.86 5.67 5.67 0 0 0-0.06 0.71v0.79a14.88 14.88 0 0 0 0.1 1.77q0 0.35 0.09 0.69a15.87 15.87 0 0 0 1.08 3.88c0.09 0.21 0.18 0.42 0.28 0.62a16 16 0 0 0 3.42 4.85l0.26 0.26L412.35 928.5a15.82 15.82 0 0 0 1.74 1.44 16.42 16.42 0 0 0 19.16 0.17l66.34-46.65a476.94 476.94 0 0 0 113.75-113 443.39 443.39 0 0 1 114.42-111.05l20.18-13.49a476.53 476.53 0 0 0 110.55-102.75l70.29-89.88a15.89 15.89 0 0 0 2.66-5l40-49.83a16.49 16.49 0 0 0 3.43-12.55z m-388.31 365.4a444.21 444.21 0 0 1-105.91 105.22l-5.49 3.85 43.6-68.55a200.08 200.08 0 0 1 89-76.21l11.34-5a482.65 482.65 0 0 0-32.54 40.69z m246-228.42a443.57 443.57 0 0 1-102.92 95.66l-4.33 2.89q6-9.24 11-19.05l12.89-24.95a201.89 201.89 0 0 1 92-89.07l29.27-14z m80.86-104.71l-0.74 0.91-345.21-244.82 22.1-27.56 345.24 244.8z" fill="#303030" p-id="33678"></path><path d="M198.61 410.13a16.42 16.42 0 0 1-8.26 13.47c-3.06 1.76-3.71 2.2-6.15 3.84l-1.95 1.32a16.47 16.47 0 0 1-18.32-27.37l1.87-1.25c2.91-1.95 4.24-2.84 8.19-5.09a16.45 16.45 0 0 1 24.62 15.08z" fill="#303030" p-id="33679"></path><path d="M529.76 499.29c-40.29 40.3-85 64-111.84 61.53a24.5 24.5 0 0 1-0.84 7.7L395.54 649a24.71 24.71 0 0 1-41.32 11l-58.88-58.89a24.69 24.69 0 0 1 11.08-41.31l80.43-21.55a25.13 25.13 0 0 1 7.51-0.85c-2.59-26.78 21.1-71.64 61.5-112 50.5-50.5 108-74.91 128.4-54.5s-4 77.89-54.5 128.39z" fill="#F86E8A" p-id="33680"></path><path d="M934.81 391.51l-21.39 26.67-0.74 0.91-345.21-244.82 0.02-0.03 22.1-27.56 345.22 244.83z" fill="#FFFFFF" p-id="33681"></path></svg>