<?xml version="1.0" standalone="no"?><!DOCTYPE svg PUBLIC "-//W3C//DTD SVG 1.1//EN" "http://www.w3.org/Graphics/SVG/1.1/DTD/svg11.dtd"><svg t="1710410322104" class="icon" viewBox="0 0 1024 1024" version="1.1" xmlns="http://www.w3.org/2000/svg" p-id="33838" xmlns:xlink="http://www.w3.org/1999/xlink" width="200" height="200"><path d="M514.64 47.71a475.47 475.47 0 0 0-176.71 33.62 455.75 455.75 0 0 0-147.8 94.87A444.76 444.76 0 0 0 88.66 323C63.78 381.19 51.11 444.38 51 510.79a463.43 463.43 0 0 0 463.79 464.48 468.08 468.08 0 0 0 77.74-6.49 147.93 147.93 0 0 0 88.76-51A149.49 149.49 0 0 0 716 821.72V821a320 320 0 0 1 9.18-76.26 316.53 316.53 0 0 1 26.06-69.53 321.55 321.55 0 0 1 94.18-110.55 229.92 229.92 0 0 0 52.85-314.07A467.54 467.54 0 0 0 736.78 104.2 461.76 461.76 0 0 0 519 47.73h-4.39z" fill="#4A4A4A" p-id="33839"></path><path d="M677.21 821c0-117.9 57.1-222.45 145.15-287.53 82.31-60.84 101.5-176.45 43.85-261C790.4 161.19 663.15 87.81 518.68 86.52 289.34 84.46 90.18 257.41 89.8 510.85c-0.35 235 190.06 425.63 425 425.63a427.71 427.71 0 0 0 71.28-6c52.92-8.94 91.26-55.05 91.14-108.72q-0.01-0.37-0.01-0.76z" fill="#FED03D" p-id="33840"></path><path d="M600.51 838.13s-169.42 38.79-313.1-38.8C164 732.71 111.94 570 91.32 473.64q-1.47 18.3-1.52 37.21c-0.35 235 190.06 425.63 425 425.63a427.7 427.7 0 0 0 71.28-6 109.31 109.31 0 0 0 84.78-71.47z" fill="#ACE068" p-id="33841"></path><path d="M600.51 838.13s-80.11 18.34-176.87 4.57c-3.08-0.44-9.29-1.41-9.29-1.41l-106.71 41.37s4.86 2.69 7.32 4a423.12 423.12 0 0 0 199.84 49.82 427.7 427.7 0 0 0 71.28-6 109.31 109.31 0 0 0 84.78-71.47z" fill="#FFBB14" p-id="33842"></path><path d="M169.11 680.51s-2.9-4.83-4.32-7.26c-39.67-68-61.69-144.63-73.46-199.61q-1.47 18.3-1.52 37.21a424.13 424.13 0 0 0 26.48 148.64c0.92 2.49 2.84 7.42 2.84 7.42z" fill="#6AFFAD" p-id="33843"></path><path d="M878.08 383.27c-52.33-37.9-159.36-1.71-259.52 149S528.33 858 578 886s82.11-5.41 82.11-5.41l9.34-17.65a110.49 110.49 0 0 0 7.81-41.08v-0.82c0-117.9 57.1-222.45 145.15-287.53a189.46 189.46 0 0 0 72.91-113.73c-0.03-12.29-3.58-26.62-17.24-36.51z" fill="#FEDD8F" p-id="33844"></path><path d="M664.25 299a13.53 13.53 0 0 0-19-2c-1 0.8-24.61 20.16-60.4 60.59l-2.28 2.6c-15.1-20-32.6-41.9-50.46-61.74-11.5-12.77-29.37-28.38-47.79-43.3 27.78-30.16 45.8-45 46.28-45.43a13.53 13.53 0 1 0-17.09-21c-0.89 0.73-20.31 16.64-50.5 49.6-25.63-19.77-47.79-35.39-49.57-36.64a13.53 13.53 0 0 0-15.56 22.15c0.42 0.3 22 15.5 47.12 34.8-41.87 48.61-71.18 88.25-97.17 130-21.44-20.38-38.83-36.45-40.36-37.87a13.53 13.53 0 1 0-18.36 19.89c0.4 0.37 20.46 18.91 44.32 41.67-2.84 4.78-8.24 13.91-10.78 18.33-23.31 40.49-44.14 76.93-59.15 109.94-17.69-20.2-31.41-36-31.7-36.28a13.53 13.53 0 0 0-20.42 17.77c0.33 0.38 18.5 21.25 40.06 45.83a807.26 807.26 0 0 0-32.85 91.94 13.53 13.53 0 1 0 25.8 8.15 700.32 700.32 0 0 1 26.94-77.35c12.07 13.69 23.86 27 33.09 37.25 22.52 25 49.3 51.11 71.88 72.18a796.5 796.5 0 0 0-26.16 84 13.53 13.53 0 1 0 26.12 7.09A698.49 698.49 0 0 1 397.93 720c15.25 13.79 25.74 22.82 26.83 23.76a13.53 13.53 0 0 0 17.64-20.53c-0.31-0.27-14.4-12.4-34.14-30.46 14.78-37.55 39.45-85.88 65.23-132.32L500.24 590a13.53 13.53 0 1 0 20.09-18.14c-0.26-0.28-13.43-14.87-32.64-36.17C523.56 475 553.06 438.26 581 403.94c15.22 21.2 25.11 36.17 25.32 36.49A13.53 13.53 0 0 0 629 425.55c-1-1.45-12.58-19.05-29.95-43 1.88-2.17 3.71-4.27 5.49-6.28 34.32-38.85 57.37-57.84 57.79-58.19a13.54 13.54 0 0 0 1.92-19.08zM386.91 672.89c-20.4-19.27-43.18-41.75-62.37-63.08-11.33-12.59-26.54-29.81-41.4-46.68 15.45-34.91 37.56-74.83 62.92-118.88 1.56-2.7 5.82-9.89 7.37-12.55 18.24 17.71 36.2 35.64 47.53 48.24 18.43 20.47 37.2 41.31 53.4 59.27-26.53 46.69-51.88 95.17-67.45 133.68z m81.79-158.2c-14.8-16.41-31.34-34.77-47.62-52.85-12.82-14.24-33.28-34.58-53.34-54 39.26-63.84 71.2-100.76 98.5-132.39 17.84 14.39 35 29.32 45.71 41.17 18.57 20.63 37 44 52.56 64.77-42.35 51.19-71.29 92.45-95.81 133.3z" fill="#F97C1E" p-id="33845"></path><path d="M846.85 431.18c16.24 50.53-97.45 64.07-148.85 170.54-72.54 150.18-44.21 258.06-80.31 252.65-57.95-8.69-46-130.84 10.83-268 73.56-177.54 210.12-180.73 218.33-155.19z" fill="#FEA800" p-id="33846"></path><path d="M734.51 221.4m-19.4 0a19.4 19.4 0 1 0 38.8 0 19.4 19.4 0 1 0-38.8 0Z" fill="#FFFFFF" p-id="33847"></path><path d="M559 137.93c3.08-23.62 63.16-9.93 94.74 8.12 24.48 14 72.64 31.13 50.53 53.24-11.76 11.76-23.46-17.14-72.19-30.68-47.94-13.32-75.78-9.92-73.08-30.68z" fill="#FFFFFF" p-id="33848"></path></svg>