<?xml version="1.0" standalone="no"?><!DOCTYPE svg PUBLIC "-//W3C//DTD SVG 1.1//EN" "http://www.w3.org/Graphics/SVG/1.1/DTD/svg11.dtd"><svg t="1710410281805" class="icon" viewBox="0 0 1024 1024" version="1.1" xmlns="http://www.w3.org/2000/svg" p-id="31637" xmlns:xlink="http://www.w3.org/1999/xlink" width="200" height="200"><path d="M818.55 256.4h-628a30 30 0 1 1 0-60h628a30 30 0 0 1 0 60zM818.55 821.77h-628a30 30 0 0 1 0-60h628a30 30 0 0 1 0 60z" fill="#0A1491" p-id="31638"></path><path d="M748.73 951.26c-41.78 0-64-21.1-80.28-36.51-14.66-13.9-21.86-20-39-20s-24.31 6.14-39 20c-16.24 15.41-38.48 36.52-80.25 36.52s-64-21.11-80.21-36.53c-14.62-13.89-21.81-20-38.89-20s-24.29 6.14-38.93 20C336 930.15 313.74 951.26 272 951.26c-36.38 0-57.61-20.9-70.4-36.63-26.44-32.48-41-75.47-41-121.06V226.12c0-45.58 14.56-88.58 41-121.06 12.8-15.72 34-36.63 70.4-36.63 41.76 0 64 21.11 80.24 36.52 14.64 13.89 21.83 20 38.93 20s24.26-6.14 38.89-20c16.23-15.41 38.46-36.53 80.21-36.53s64 21.11 80.25 36.52c14.64 13.9 21.84 20 39 20s24.34-6.15 39-20c16.25-15.41 38.5-36.51 80.28-36.51 44.74 0 67.52 31.81 79.75 48.9 23.38 32.66 36.26 73.4 36.26 114.72v555.59c0 41.32-12.88 82.06-36.26 114.72-12.3 17.09-35.08 48.9-79.82 48.9zM629.44 834.7c41.78 0 64 21.1 80.29 36.51 14.66 13.9 21.86 20 39 20 10.79 0 17.73-5.34 31-23.83 16.15-22.55 25-50.89 25-79.79V232.06c0-28.9-8.89-57.23-25-79.79-13.23-18.48-20.18-23.83-31-23.83-17.14 0-24.34 6.15-39 20-16.25 15.45-38.5 36.56-80.29 36.56s-64-21.11-80.25-36.52c-14.64-13.9-21.84-20-39-20s-24.26 6.14-38.89 20c-16.18 15.4-38.41 36.52-80.16 36.52s-64-21.11-80.23-36.52c-14.64-13.89-21.83-20-38.93-20-7.83 0-13.95 2.31-23.87 14.5-17.75 21.81-27.53 51.35-27.53 83.18v567.42c0 31.83 9.78 61.37 27.53 83.18 9.92 12.19 16 14.5 23.87 14.5 17.1 0 24.29-6.14 38.93-20 16.24-15.41 38.47-36.52 80.23-36.52s64 21.11 80.21 36.53c14.63 13.89 21.81 20 38.89 20s24.31-6.14 39-20c16.19-15.46 38.44-36.57 80.2-36.57z" fill="#2F4FF8" p-id="31639"></path><path d="M688.77 515.07H336a19.2 19.2 0 0 1-19.2-19.2V329.22A19.2 19.2 0 0 1 336 310h352.77a19.2 19.2 0 0 1 19.2 19.2v166.67a19.2 19.2 0 0 1-19.2 19.2z m-333.55-38.4h314.35V348.42H355.21z" fill="#53C6F9" p-id="31640"></path></svg>