<?xml version="1.0" standalone="no"?><!DOCTYPE svg PUBLIC "-//W3C//DTD SVG 1.1//EN" "http://www.w3.org/Graphics/SVG/1.1/DTD/svg11.dtd"><svg t="1710410303536" class="icon" viewBox="0 0 1024 1024" version="1.1" xmlns="http://www.w3.org/2000/svg" p-id="33501" xmlns:xlink="http://www.w3.org/1999/xlink" width="200" height="200"><path d="M144.28 512.26a378.79 448.04 0 1 0 757.58 0 378.79 448.04 0 1 0-757.58 0Z" fill="#D3C758" p-id="33502"></path><path d="M93.4 514.32a378.79 448.04 0 1 0 757.58 0 378.79 448.04 0 1 0-757.58 0Z" fill="#C3ED51" p-id="33503"></path><path d="M475.31 499.21l-18.59-230.27 26.82 2.27zM475.66 501.87l-82.93-240.19 26.52-4.6zM475.66 501.87L333.4 291.36l24.44-11.3zM475.66 501.87L288.87 340.75l20.65-17.27zM475.66 501.87L253.06 394.3l15.48-22.03zM475.66 501.87l-244.75-46.86 9.26-25.28zM475.66 501.87l-237.62 18.39 2.33-26.81zM471.39 502.44L237.6 583.85l-4.64-26.52zM471.39 502.44l-201.7 137.49-11.36-24.4zM471.39 502.44L310.16 689.32l-17.27-20.64zM471.39 502.44L366.05 721.4 344 705.95zM471.39 502.44l-40.28 222.67-25.32-9.11zM471.39 502.44l17.79 258.89-26.81-2.47zM471.95 506.71l79.77 226.92-26.5 4.68zM471.95 506.71L614.1 717.03l-24.43 11.3zM471.95 506.71l183.8 157.96-20.62 17.3zM471.95 506.71L690.03 611.5l-15.44 22.05zM471.95 506.71l244.72 46.85-9.26 25.28zM471.95 506.71l238.85-18.35-2.34 26.81zM476.23 506.15l211.31-76.06 4.79 26.48zM476.23 506.15l210.46-142.23 11.3 24.43zM476.23 506.15l175.13-200.04 17.18 20.73zM476.23 506.15l120.12-243 21.95 15.61zM476.23 506.15l52.47-263.58 25.24 9.39z" fill="#ABD159" p-id="33504"></path><path d="M372.9 513.47a85.03 115.4 0 1 0 170.06 0 85.03 115.4 0 1 0-170.06 0Z" fill="#CEDB52" p-id="33505"></path><path d="M313.56 185.08c9.8 4.36 17.42 11.87 14.05 24.78-2.15 8.25-8.25 14.95-15.82 18.88-30.33 15.75-132.39 78.86-145.36 220.28 0 0-17.13-153.32 99.93-256.03 12.91-11.33 31.52-14.89 47.2-7.91z" fill="#E4FF83" p-id="33506"></path></svg>