<?xml version="1.0" standalone="no"?><!DOCTYPE svg PUBLIC "-//W3C//DTD SVG 1.1//EN" "http://www.w3.org/Graphics/SVG/1.1/DTD/svg11.dtd"><svg t="1712638303561" class="icon" viewBox="0 0 1024 1024" version="1.1" xmlns="http://www.w3.org/2000/svg" p-id="24301" data-spm-anchor-id="a313x.search_index.0.i43.19c43a81JbycKs" xmlns:xlink="http://www.w3.org/1999/xlink" width="200" height="200"><path d="M314.806857 986.550857a82.944 82.944 0 0 1-116.662857-29.257143 90.404571 90.404571 0 0 1-10.020571-65.609143l51.785142-226.523428a15.286857 15.286857 0 0 0-4.388571-14.701714L65.828571 498.907429a89.819429 89.819429 0 0 1-9.142857-123.099429c14.409143-17.627429 35.181714-28.672 57.636572-30.573714l222.500571-18.578286a13.385143 13.385143 0 0 0 11.190857-8.704l85.723429-215.04C451.657143 58.148571 501.321143 36.717714 544.694857 55.588571c20.699429 9.069714 37.010286 26.112 45.494857 47.396572l85.723429 215.04a13.385143 13.385143 0 0 0 11.190857 8.704l222.500571 18.578286c46.665143 3.949714 81.188571 46.299429 77.531429 94.354285a88.795429 88.795429 0 0 1-29.037714 59.392L788.48 650.459429a15.286857 15.286857 0 0 0-4.461714 14.701714l51.785143 226.596571c10.678857 46.811429-17.115429 94.061714-62.537143 105.325715-21.942857 5.485714-44.982857 1.682286-64.146286-10.532572l-190.537143-121.417143a12.361143 12.361143 0 0 0-13.385143 0l-190.464 121.417143z" fill="#f4a629" p-id="24302"></path></svg>