<?xml version="1.0" standalone="no"?><!DOCTYPE svg PUBLIC "-//W3C//DTD SVG 1.1//EN" "http://www.w3.org/Graphics/SVG/1.1/DTD/svg11.dtd"><svg t="1712638294568" class="icon" viewBox="0 0 1024 1024" version="1.1" xmlns="http://www.w3.org/2000/svg" p-id="24083" xmlns:xlink="http://www.w3.org/1999/xlink" width="200" height="200"><path d="M514.4576 807.594667c13.653333 0 27.374933 3.2768 39.867733 9.898666l201.728 106.018134c12.9024 6.826667 23.415467 0.887467 27.306667-1.979734a25.258667 25.258667 0 0 0 10.308267-25.3952l-38.5024-224.597333c-4.778667-27.784533 4.437333-56.183467 24.644266-75.844267l163.157334-159.061333a25.326933 25.326933 0 0 0 6.621866-26.624 25.258667 25.258667 0 0 0-20.957866-17.681067l-225.553067-32.768a85.674667 85.674667 0 0 1-64.512-46.8992L537.736533 108.3392a25.326933 25.326933 0 0 0-23.278933-14.472533 25.258667 25.258667 0 0 0-23.278933 14.472533L390.280533 312.661333c-12.424533 25.258667-36.590933 42.871467-64.512 46.8992l-225.4848 32.768a25.258667 25.258667 0 0 0-20.957866 17.681067 25.326933 25.326933 0 0 0 6.5536 26.624l163.157333 159.061333c20.206933 19.6608 29.422933 48.059733 24.644267 75.776l-38.5024 224.597334a25.258667 25.258667 0 0 0 10.376533 25.463466 25.258667 25.258667 0 0 0 27.306667 1.979734l201.728-106.018134c12.4928-6.621867 26.146133-9.898667 39.867733-9.898666m253.7472 178.722133c-13.653333 0-27.306667-3.2768-40.004267-9.966933L526.5408 870.4a25.941333 25.941333 0 0 0-24.1664 0l-201.728 106.018133a85.128533 85.128533 0 0 1-90.248533-6.485333 85.1968 85.1968 0 0 1-34.133334-83.831467l38.570667-224.597333a25.941333 25.941333 0 0 0-7.509333-23.005867l-163.157334-159.061333A85.1968 85.1968 0 0 1 22.528 391.5776a85.128533 85.128533 0 0 1 69.154133-58.368l225.553067-32.768a25.941333 25.941333 0 0 0 19.524267-14.199467L437.589333 81.92c14.5408-29.4912 44.032-47.786667 76.868267-47.786667 32.836267 0 62.2592 18.295467 76.8 47.786667l100.898133 204.322133a25.941333 25.941333 0 0 0 19.524267 14.199467l225.553067 32.768c32.494933 4.778667 58.9824 27.101867 69.154133 58.368 10.171733 31.197867 1.8432 64.853333-21.7088 87.790933l-163.157333 159.061334a25.941333 25.941333 0 0 0-7.509334 23.005866l38.570667 224.597334c5.5296 32.3584-7.509333 64.512-34.133333 83.831466a85.333333 85.333333 0 0 1-50.244267 16.384" fill="#555555" p-id="24084"></path></svg>