<?xml version="1.0" standalone="no"?>
<svg t="1709636142604" class="icon" viewBox="0 0 1024 1024" version="1.1"
    xmlns="http://www.w3.org/2000/svg" p-id="25320" xmlns:xlink="http://www.w3.org/1999/xlink"
    width="200" height="200">
    <path d="M332.8 810.666667a179.2 74.666667 0 1 0 358.4 0 179.2 74.666667 0 1 0-358.4 0Z"
        fill="#FD7D70" p-id="25321"></path>
    <path
        d="M371.2 411.733333h-23.466667c-102.4-2.133333-187.733333-87.466667-187.733333-192V194.133333c-2.133333-12.8 8.533333-23.466667 21.333333-23.466666 102.4 2.133333 187.733333 87.466667 187.733334 192l2.133333 49.066666z"
        fill="#FD7D70" p-id="25322"></path>
    <path
        d="M234.666667 322.133333a153.6 151.466667 90 1 0 302.933333 0 153.6 151.466667 90 1 0-302.933333 0Z"
        fill="#FFDCB4" p-id="25323"></path>
    <path
        d="M588.8 430.933333a153.6 151.466667 90 1 0 302.933333 0 153.6 151.466667 90 1 0-302.933333 0Z"
        fill="#FFDCB4" p-id="25324"></path>
    <path
        d="M142.933333 490.666667a181.333333 172.8 90 1 0 345.6 0 181.333333 172.8 90 1 0-345.6 0Z"
        fill="#FFDCB4" p-id="25325"></path>
    <path
        d="M354.133333 356.266667a215.466667 213.333333 90 1 0 426.666667 0 215.466667 213.333333 90 1 0-426.666667 0Z"
        fill="#FFDCB4" p-id="25326"></path>
    <path
        d="M130.133333 426.666667c-2.133333 25.6-2.133333 2.133333 0 27.733333 19.2 189.866667 170.666667 341.333333 356.266667 352 217.6 14.933333 401.066667-157.866667 409.6-375.466667V426.666667c-2.133333-12.8-10.666667-21.333333-23.466667-21.333334H153.6c-12.8 0-23.466667 8.533333-23.466667 21.333334z"
        fill="#FD7D70" p-id="25327"></path>
</svg>