<?xml version="1.0" standalone="no"?><!DOCTYPE svg PUBLIC "-//W3C//DTD SVG 1.1//EN" "http://www.w3.org/Graphics/SVG/1.1/DTD/svg11.dtd"><svg t="1712597035751" class="icon" viewBox="0 0 1024 1024" version="1.1" xmlns="http://www.w3.org/2000/svg" p-id="15699" data-spm-anchor-id="a313x.search_index.0.i17.19c43a81JbycKs" xmlns:xlink="http://www.w3.org/1999/xlink" width="200" height="200"><path d="M412.299636 13.358545a46.545455 46.545455 0 0 0-16.011636 2.141091c0 166.912-142.475636 307.2-142.475636 307.2a356.770909 356.770909 0 0 1-94.999273-43.892363 427.938909 427.938909 0 0 0-94.999273 482.676363C142.289455 939.52 324.142545 1024 502.690909 1024c167.889455 0 332.846545-74.891636 405.690182-217.134545C1069.149091 492.730182 876.823273 190.836364 777.588364 190.836364h-1.303273c20.526545 86.853818-44.776727 87.738182-47.429818 87.738181-175.057455-238.917818-278.993455-265.309091-316.509091-265.30909z" fill="#b2eff8" p-id="15700" data-spm-anchor-id="a313x.search_index.0.i18.19c43a81JbycKs" class="selected"></path><path d="M359.517091 476.625455a38.074182 38.074182 0 0 0-39.191273 36.817454v35.793455a39.284364 39.284364 0 0 0 78.382546 0v-35.793455a38.074182 38.074182 0 0 0-39.191273-36.817454z m345.088 72.610909v-35.793455a39.284364 39.284364 0 0 0-78.382546 0v35.793455a39.284364 39.284364 0 0 0 78.382546 0z m-303.290182 144.011636a134.981818 134.981818 0 0 0 108.078546 57.250909 137.216 137.216 0 0 0 108.63709-56.971636 35.281455 35.281455 0 0 0-11.589818-50.362182 41.053091 41.053091 0 0 0-54.132363 10.333091 59.159273 59.159273 0 0 1-42.868364 23.272727 55.854545 55.854545 0 0 1-41.890909-22.807273 40.680727 40.680727 0 0 0-53.76-11.496727 35.514182 35.514182 0 0 0-12.613818 50.688zM439.901091 65.861818c40.448 15.406545 123.904 67.072 250.368 239.662546a47.802182 47.802182 0 0 0 38.586182 19.316363 102.4 102.4 0 0 0 76.381091-35.653818 93.928727 93.928727 0 0 0 13.963636-23.738182 276.712727 276.712727 0 0 1 35.328 45.381818 480.256 480.256 0 0 1 11.450182 475.787637c-60.509091 118.225455-199.773091 191.627636-363.380364 191.627636-141.125818 0-319.115636-61.672727-395.357091-234.728727a368.779636 368.779636 0 0 1 61.905455-404.945455 374.970182 374.970182 0 0 0 71.912727 28.625455 48.453818 48.453818 0 0 0 12.753455 1.722182 47.941818 47.941818 0 0 0 33.605818-13.684364 571.950545 571.950545 0 0 0 152.482909-289.373091M412.299636 13.358545a46.545455 46.545455 0 0 0-16.011636 2.141091c0 166.912-142.475636 307.2-142.475636 307.2a356.770909 356.770909 0 0 1-94.999273-43.892363 427.938909 427.938909 0 0 0-94.999273 482.676363C142.289455 939.52 324.142545 1024 502.690909 1024c167.889455 0 332.846545-74.891636 405.690182-217.134545C1069.149091 492.730182 876.823273 190.836364 777.588364 190.836364h-1.303273c20.526545 86.853818-44.776727 87.738182-47.429818 87.738181-175.057455-238.917818-278.993455-265.309091-316.509091-265.30909zM359.517091 476.625455a38.074182 38.074182 0 0 0-39.191273 36.817454v35.793455a39.284364 39.284364 0 0 0 78.382546 0v-35.793455a38.074182 38.074182 0 0 0-39.191273-36.817454z m345.088 72.610909v-35.793455a39.284364 39.284364 0 0 0-78.382546 0v35.793455a39.284364 39.284364 0 0 0 78.382546 0z m-303.290182 144.011636a134.981818 134.981818 0 0 0 108.078546 57.250909 137.216 137.216 0 0 0 108.63709-56.971636 35.281455 35.281455 0 0 0-11.589818-50.362182 41.053091 41.053091 0 0 0-54.132363 10.333091 59.159273 59.159273 0 0 1-42.868364 23.272727 55.854545 55.854545 0 0 1-41.890909-22.807273 40.680727 40.680727 0 0 0-53.76-11.496727 35.514182 35.514182 0 0 0-12.613818 50.688z" fill="#1296db" p-id="15701" data-spm-anchor-id="a313x.search_index.0.i16.19c43a81JbycKs" class=""></path></svg>